<svg viewBox="0 0 660 170" xmlns:xlink="http://www.w3.org/1999/xlink" xmlns="http://www.w3.org/2000/svg" xml:space="preserve"><path fill="#464646" d="m258.103 164.43 7.363-28.388h18.004l-.639 2.468H267.68l-2.681 10.258h13.15l-.552 2.255h-13.152l-3.49 13.407h-2.852zm36.519 0 18.514-28.388h2.979l3.746 28.388h-2.979l-1.065-8.981h-12.513l-5.703 8.981h-2.979zm10.087-11.236h10.896l-1.746-14.471-9.15 14.471zm61.757 1.149c-1.362 3.377-3.32 5.987-5.874 7.831-2.553 1.844-5.49 2.767-8.81 2.767-3.064 0-5.419-.838-7.065-2.512-1.645-1.674-2.468-4.015-2.468-7.022 0-.823.063-1.674.191-2.553.128-.88.319-1.802.575-2.767 1.163-4.484 3.255-8.037 6.278-10.662 3.021-2.624 6.504-3.937 10.449-3.937 2.95 0 5.177.689 6.681 2.064 1.504 1.376 2.257 3.456 2.257 6.236v.34h-2.767c-.114-2.1-.731-3.66-1.852-4.682-1.121-1.021-2.802-1.532-5.043-1.532-3.093 0-5.817 1.099-8.172 3.299-2.356 2.199-4.029 5.199-5.023 9.001-.198.823-.354 1.624-.467 2.405-.114.781-.171 1.511-.171 2.192 0 2.412.617 4.306 1.852 5.682 1.234 1.376 3 2.064 5.298 2.064 2.497 0 4.781-.745 6.853-2.235 2.071-1.489 3.589-3.482 4.554-5.979h2.724zm26.218-18.301h2.852l-4.852 18.727c-.142.539-.249 1.064-.319 1.574-.071.511-.107.994-.107 1.448 0 1.56.482 2.744 1.447 3.553.965.809 2.483 1.213 4.555 1.213 2.751 0 4.894-.702 6.426-2.107 1.532-1.404 2.639-3.398 3.319-5.98l4.767-18.428h2.852l-4.681 18.088c-.88 3.433-2.419 6.093-4.618 7.98s-5.101 2.831-8.704 2.831c-1.703 0-3.2-.242-4.491-.724-1.29-.483-2.248-1.163-2.872-2.043-.369-.482-.639-1-.809-1.554-.17-.552-.256-1.184-.256-1.893 0-.568.064-1.214.192-1.937.128-.724.306-1.539.532-2.447l4.767-18.301zm36.773 28.388 7.364-28.388h2.852l-6.768 26.005h14.769l-.596 2.383h-17.621zm38.434 0 7.363-28.388h10.002c2.384 0 4.15.199 5.299.595 1.149.397 2.092 1.135 2.831 2.213.539.795.943 1.654 1.212 2.576.27.922.405 1.951.405 3.085 0 .795-.071 1.645-.213 2.554-.142.908-.341 1.873-.596 2.893-.624 2.442-1.462 4.576-2.511 6.406-1.05 1.831-2.327 3.412-3.83 4.746-.057.057-.121.114-.192.17-.071.057-.135.114-.192.171-1.333 1.078-2.716 1.844-4.149 2.298-1.433.454-3.2.681-5.299.681h-10.13zm3.533-2.426h7.022c1.788 0 3.284-.22 4.491-.66 1.205-.439 2.319-1.142 3.341-2.107 1.106-1.106 2.028-2.312 2.766-3.618.738-1.305 1.334-2.638 1.788-4 .114-.284.213-.582.298-.894s.17-.61.256-.894c.226-.879.396-1.702.51-2.468.114-.767.17-1.49.17-2.171 0-.907-.092-1.724-.277-2.447-.184-.723-.461-1.37-.829-1.936-.568-.88-1.327-1.483-2.277-1.81-.951-.325-2.363-.489-4.236-.489h-6.937l-6.086 23.494zm38.476 2.426 18.514-28.388h2.979l3.746 28.388h-2.98l-1.064-8.981h-12.513l-5.703 8.981H509.9zm10.087-11.236h10.896l-1.746-14.471-9.15 14.471zm35.794 11.236 7.364-28.388h10.002c2.383 0 4.149.199 5.298.595 1.149.397 2.093 1.135 2.831 2.213.539.795.943 1.654 1.212 2.576.27.922.405 1.951.405 3.085 0 .795-.071 1.645-.213 2.554-.142.908-.34 1.873-.596 2.893-.624 2.442-1.461 4.576-2.511 6.406-1.05 1.831-2.327 3.412-3.83 4.746-.057.057-.121.114-.192.17-.071.057-.135.114-.191.171-1.334 1.078-2.717 1.844-4.15 2.298-1.434.454-3.199.681-5.299.681h-10.13zm3.532-2.426h7.024c1.787 0 3.284-.22 4.49-.66 1.206-.439 2.32-1.142 3.341-2.107 1.107-1.106 2.028-2.312 2.766-3.618.738-1.305 1.334-2.638 1.788-4 .114-.284.213-.582.298-.894.085-.312.17-.61.255-.894.228-.879.398-1.702.512-2.468.113-.767.17-1.49.17-2.171 0-.907-.093-1.724-.278-2.447-.184-.723-.461-1.37-.829-1.936-.568-.88-1.327-1.483-2.277-1.81-.951-.325-2.362-.489-4.235-.489H565.4l-6.087 23.494zm41.328 2.426 7.363-28.388h19.068l-.638 2.425h-16.216l-2.639 10.258h14.896l-.596 2.256h-14.896l-2.894 11.066h16.599l-.596 2.383h-19.451z"/><path fill="#1A1A1A" d="m213.391 86.48-3.387 13.257h54.941l-6.629 25.482h-84.401l25.483-98.247h82.929l-6.63 25.63h-53.468l-3.24 12.374h46.105l-5.598 21.504h-46.105zm98.125-31.963-2.212 10.164c1.572-1.571 3.071-2.995 4.495-4.271 1.423-1.277 2.823-2.357 4.198-3.241 2.65-1.768 5.35-3.02 8.102-3.755 2.748-.737 5.743-1.106 8.984-1.106 6.579 0 11.587 1.547 15.024 4.64 3.437 3.093 5.157 7.487 5.157 13.183 0 1.375-.099 2.824-.296 4.345-.196 1.522-.539 3.118-1.031 4.787l-11.932 45.956h-26.807l10.459-40.506c.194-.786.343-1.497.442-2.136.096-.638.146-1.252.146-1.842 0-1.963-.588-3.461-1.768-4.492-1.177-1.031-2.897-1.546-5.154-1.546-3.634 0-6.752 1.227-9.354 3.682-2.603 2.455-4.542 6.039-5.819 10.753l-9.279 36.087H268.21l18.266-70.702h25.04zm41.733 47.724h25.63c-.099.393-.146.786-.146 1.179v1.178c0 2.455.76 4.296 2.281 5.523 1.522 1.228 3.806 1.842 6.849 1.842 2.555 0 4.689-.564 6.409-1.694 1.717-1.129 2.823-2.675 3.312-4.641.099-.392.173-.735.223-1.03.049-.294.072-.54.072-.736 0-.787-.295-1.425-.882-1.916-.59-.49-1.67-.982-3.24-1.472-.787-.197-1.67-.418-2.653-.663-.981-.245-2.159-.515-3.535-.811-.392-.098-.761-.171-1.104-.221-.343-.048-.713-.122-1.106-.22-.589-.197-1.201-.344-1.839-.442-.641-.098-1.303-.245-1.991-.442-5.204-1.08-9.965-2.724-14.287-4.934-4.32-2.21-6.431-6.064-6.333-11.563 0-.785.049-1.669.147-2.652.099-.981.295-2.012.59-3.093 1.866-6.873 6.457-12.446 13.772-16.718 7.315-4.271 16.031-6.407 26.145-6.407 8.052 0 14.509 1.007 19.37 3.02 4.86 2.013 7.831 4.934 8.91 8.764.197.393.343.736.442 1.031.098.294.149.638.149 1.031.098.491.17.982.22 1.473.048.49.072 1.031.072 1.62 0 .688-.024 1.522-.072 2.504-.05.982-.173 2.16-.369 3.535h-25.187v-1.472c0-2.063-.589-3.535-1.767-4.42-1.18-.884-3.046-1.325-5.598-1.325-2.456 0-4.541.467-6.26 1.399-1.719.933-2.823 2.234-3.315 3.903-.098.099-.146.222-.146.369v.515c0 1.571 1.104 2.676 3.312 3.314 2.211.638 4.886 1.203 8.028 1.694 1.081.196 2.235.392 3.461.589 1.23.197 2.482.393 3.758.589 3.241.688 6.359 1.596 9.352 2.725 2.995 1.13 5.329 2.824 6.998 5.082.981 1.375 1.718 2.872 2.209 4.493.492 1.619.737 3.362.737 5.228 0 .884-.074 1.793-.221 2.726-.148.932-.319 1.89-.516 2.872-1.866 7.462-6.629 13.281-14.287 17.455-7.661 4.173-17.334 6.259-29.019 6.259-8.052 0-14.705-1.448-19.96-4.344-5.252-2.897-8.272-6.801-9.057-11.711-.098-.491-.172-1.006-.22-1.546-.05-.54-.075-1.056-.075-1.547 0-.785.049-1.645.149-2.578.096-.933.293-2.037.588-3.314M469.81 54.517l-18.265 70.702h-26.808l18.265-70.702h26.808zm7.218-27.545-5.011 19.15H445.21l5.01-19.15h26.808zm31.717 98.247 10.457-40.506c.196-.786.345-1.497.443-2.136.099-.638.147-1.252.147-1.842 0-1.963-.59-3.461-1.768-4.492-1.177-1.031-2.897-1.546-5.154-1.546-3.634 0-6.751 1.227-9.354 3.682s-4.542 6.039-5.819 10.753l-9.279 36.087h-26.661l18.264-70.702h25.042l-2.209 10.164c1.571-1.571 3.068-2.995 4.492-4.271 1.423-1.277 2.823-2.357 4.198-3.241 2.65-1.768 5.351-3.02 8.101-3.755 2.749-.737 5.745-1.106 8.985-1.106 6.579 0 11.587 1.547 15.024 4.64s5.154 7.487 5.154 13.183c0 1.375-.098 2.824-.292 4.345-.197 1.522-.542 3.118-1.032 4.787l-11.968 45.956h-26.771zm36.528 0 25.402-98.247h82.929l-6.628 25.63h-53.47l-3.24 12.374h46.104l-5.597 21.504H584.67l-3.389 13.257h54.941l-6.627 25.482h-84.322z"/><linearGradient id="a" gradientUnits="userSpaceOnUse" x1="76.0946" y1="0" x2="76.0946" y2="152.191"><stop offset="0" stop-color="#ff2c1f"/><stop offset=".1441" stop-color="#ff301e"/><stop offset=".2934" stop-color="#ff3d1b"/><stop offset=".4451" stop-color="#ff5116"/><stop offset=".5974" stop-color="#ff6e10"/><stop offset=".7" stop-color="#ff860a"/><stop offset=".747" stop-color="#e48410"/><stop offset=".8011" stop-color="#cc8315"/><stop offset=".8587" stop-color="#bb8219"/><stop offset=".9216" stop-color="#b1811b"/><stop offset="1" stop-color="#ae811c"/></linearGradient><path fill="url(#a)" d="m73.399 110.016-17.836 17.835c-1.484 1.483-1.484 3.91 0 5.393l17.836 17.834c1.482 1.484 3.909 1.484 5.392 0l17.836-17.834c1.483-1.483 1.483-3.91 0-5.393l-17.836-17.835c-.742-.742-1.719-1.113-2.697-1.113-.977 0-1.955.371-2.695 1.113m0-108.903L1.111 73.399c-1.482 1.483-1.482 3.909 0 5.392l45.062 45.063c1.483 1.482 3.909 1.482 5.393 0l18.433-18.435c1.601-1.49 3.741-2.818 6.096-2.818s4.503 1.332 6.103 2.825l18.426 18.428c1.483 1.482 3.909 1.482 5.393 0l45.062-45.063c1.481-1.483 1.481-3.909 0-5.392l-17.837-17.835c-1.483-1.482-3.91-1.482-5.392 0l-20.41 20.409c-3.107 2.211-6.464-1.529-3.422-4.572l19.834-19.834c1.483-1.483 1.483-3.91 0-5.393l-17.835-17.836c-1.484-1.482-3.91-1.482-5.393 0l-20.409 20.41c-3.109 2.212-6.466-1.529-3.422-4.574L96.627 24.34c1.483-1.482 1.483-3.909 0-5.392L78.791 1.113C78.049.371 77.072 0 76.094 0c-.977 0-1.955.371-2.695 1.113"/></svg>