<svg xmlns="http://www.w3.org/2000/svg" viewBox="0 0 265.50235 68"><defs><style>.a{fill:#0096d5;}</style></defs><title>levty-logo</title><path class="a" d="M265.50235,0h-9.52787a4,4,0,0,0-3.5777,2.21114l-13.27291,26.5457L228.458,2.49486A4,4,0,0,0,224.752,0H156.21789a4,4,0,0,0-3.71766,2.52387l-19.99788,50.365-19.99787-50.365A4,4,0,0,0,108.78681,0H61.05935a4,4,0,0,0-3.9726,3.53263L50.44351,60h-38L18.97678,4.46737A4,4,0,0,0,15.00418,0H7.50235L.02792,63.53264A4,4,0,0,0,4.00053,68H91.50235l.94116-8h-30l2.58826-22H88.56119l.94116-8H65.97293L68.56119,8H102.6788l21.60936,54.42351A8.838,8.838,0,0,0,132.50235,68h0a8.838,8.838,0,0,0,8.21419-5.57649L162.3259,8h21.23529l-7.05884,60h12l7.05884-60h23.17926l13.7619,34h.05884l-3.05884,26h12l3.077-26.15381Z"/></svg>