<svg xmlns="http://www.w3.org/2000/svg" id="Layer_1" data-name="Layer 1" viewBox="199.01 385.88 1521.98 308.24"><defs><style>.cls-1{fill:#2f64e0;}</style></defs><rect class="cls-1" x="199.01" y="385.88" width="103.53" height="308.24" rx="24.47"/><path class="cls-1" d="M460.5,387.88a153.27,153.27,0,0,0-130,130,19.06,19.06,0,0,0,18.88,21.7H463.14a19.05,19.05,0,0,0,19.05-19V406.76A19.05,19.05,0,0,0,460.5,387.88Z"/><path class="cls-1" d="M634.1,616.21H604.8a6,6,0,0,1-6-6V459.93a7.21,7.21,0,0,1,7.22-7.21H632.9a7.21,7.21,0,0,1,7.21,7.21V478.1c9.31-15.17,24.14-25.53,43.63-27.43a6,6,0,0,1,6.54,6v31.06a6,6,0,0,1-6,6h-4.91c-24.5,0-39.25,9.45-39.25,41V610.2A6,6,0,0,1,634.1,616.21Z"/><path class="cls-1" d="M1296,616.21h-29.29a6,6,0,0,1-6-6V459.93a7.21,7.21,0,0,1,7.21-7.21h26.89a7.21,7.21,0,0,1,7.21,7.21V478.1c9.31-15.17,24.15-25.53,43.63-27.43a6,6,0,0,1,6.54,6v31.06a6,6,0,0,1-6,6h-4.91c-24.49,0-39.25,9.45-39.25,41V610.2A6,6,0,0,1,1296,616.21Z"/><path class="cls-1" d="M789.09,618.87c-47.51,0-82-33.06-82-84.4,0-51.65,33.64-84.4,82-84.4,47.22,0,80.56,32.16,80.56,80.86,0,1.24,0,2.49,0,3.74a12.54,12.54,0,0,1-12.52,12.19H749c2.06,24.2,18.59,37.77,39.25,37.77,14.94,0,24.21-6.3,29.93-14.84a11,11,0,0,1,9.12-4.93h21.79a10.92,10.92,0,0,1,9.49,16.35C845.89,603.17,821.85,618.87,789.09,618.87Zm-39.84-99.75h77.61c-.59-21.54-17.7-35.12-39-35.12C768.14,484,752.5,496.69,749.25,519.12Z"/><path class="cls-1" d="M1570.87,618.87c-47.51,0-82-33.06-82-84.4,0-51.65,33.64-84.4,82-84.4,47.22,0,80.56,32.16,80.56,80.86,0,1.24,0,2.49,0,3.74a12.55,12.55,0,0,1-12.53,12.19H1530.73c2.07,24.2,18.6,37.77,39.25,37.77,15,0,24.22-6.3,29.94-14.84a11,11,0,0,1,9.12-4.93h21.79a10.93,10.93,0,0,1,9.49,16.35C1627.66,603.17,1603.63,618.87,1570.87,618.87ZM1531,519.12h77.61c-.59-21.54-17.7-35.12-39-35.12C1549.92,484,1534.28,496.69,1531,519.12Z"/><path class="cls-1" d="M980.63,450.07c41.9,0,74.66,32.75,74.66,83.81s-32.76,85-74.66,85c-25.68,0-44-12.69-54-26v94a7.21,7.21,0,0,1-7.21,7.21H892.52a7.21,7.21,0,0,1-7.21-7.21v-227a7.21,7.21,0,0,1,7.21-7.21h26.89a7.21,7.21,0,0,1,7.21,7.21v16.4C936.36,462.46,955.25,450.07,980.63,450.07Zm-10.92,36.29c-22.14,0-43.09,17.12-43.09,48.11s21,48.1,43.09,48.1c22.43,0,43.38-17.71,43.38-48.69S992.14,486.36,969.71,486.36Z"/><path class="cls-1" d="M1153.87,618.87c-47.22,0-82.93-33.06-82.93-84.4,0-51.65,36.89-84.4,84.11-84.4s84.1,32.75,84.1,84.4C1239.15,585.81,1201.38,618.87,1153.87,618.87Zm0-36c21.83,0,42.79-15.93,42.79-48.39,0-32.76-20.37-48.4-42.2-48.4s-41.61,15.64-41.61,48.4C1112.85,566.93,1131.73,582.86,1153.87,582.86Z"/><path class="cls-1" d="M1391.83,486.66h-12.27a7.21,7.21,0,0,1-7.21-7.21V459.93a7.21,7.21,0,0,1,7.21-7.21h12.27V419.51a7.21,7.21,0,0,1,7.21-7.22h27.18a7.22,7.22,0,0,1,7.22,7.22v33.21h29.38a7.21,7.21,0,0,1,7.21,7.21v19.52a7.21,7.21,0,0,1-7.21,7.21h-29.38v79.09c0,10.92,4.42,15.64,17.41,15.64h12a7.21,7.21,0,0,1,7.21,7.21V609a7.21,7.21,0,0,1-7.21,7.21h-18.76c-31.28,0-52.23-13.28-52.23-50.76Z"/><rect class="cls-1" x="1674.66" y="452.72" width="41.31" height="163.49" rx="7.21"/><path class="cls-1" d="M1670.23,410.08c0-13.57,10.63-24.2,25.38-24.2,14.46,0,25.38,10.63,25.38,24.2s-10.92,24.2-25.38,24.2C1680.86,434.28,1670.23,423.66,1670.23,410.08Z"/></svg>