<?xml version="1.0" encoding="UTF-8" standalone="no"?>
<!-- Created with Inkscape (http://www.inkscape.org/) -->
<svg id="svg4991" xmlns:rdf="http://www.w3.org/1999/02/22-rdf-syntax-ns#" xmlns="http://www.w3.org/2000/svg" height="75.525mm" width="187.33mm" version="1.1" xmlns:cc="http://creativecommons.org/ns#" xmlns:dc="http://purl.org/dc/elements/1.1/" viewBox="0 0 663.77697 267.60708">
 <metadata id="metadata4996">
  <rdf:RDF>
   <cc:Work rdf:about="">
    <dc:format>image/svg+xml</dc:format>
    <dc:type rdf:resource="http://purl.org/dc/dcmitype/StillImage"/>
    <dc:title/>
   </cc:Work>
  </rdf:RDF>
 </metadata>
 <g id="layer1" transform="translate(-40.159 -392.38)">
  <g id="g4984" transform="matrix(1.4288 0 0 1.4288 -179.06 -175.97)">
   <path id="path3934" d="m186.39 426.47 197.12-16.199c1.4679-0.12012 2.9526-0.12012 4.4206 0l197.11 16.207c11.521 0.64388 20.561 10.193 20.561 21.735v86.432c0 11.762-8.9496 20.835-20.561 21.743l-197.1 16.199c-1.4744 0.1215-2.9804 0.1215-4.4548 0l-197.1-16.21c-11.521-0.64375-20.561-10.193-20.561-21.735v-86.432c0-11.762 8.9496-20.835 20.561-21.743" fill="#d2d4d5"/>
   <path id="path3936" d="m383.85 414.68-197.12 16.199c-9.1771 0.45563-16.478 8.0408-16.478 17.331v86.432c0 9.2902 7.3006 16.875 16.478 17.331l197.12 16.199c1.1746 0.0968 2.5536 0.0968 3.7282 0l197.12-16.199c9.1771-0.45563 16.478-8.0408 16.478-17.331v-86.432c0-9.2902-7.3006-16.875-16.478-17.331l-197.12-16.199c-1.1746-0.0967-2.5536-0.0967-3.7282 0" fill-rule="evenodd" fill="#0d4e2f"/>
   <g fill="#fff">
    <path id="path3938" d="m542.33 533.36c-1.5672-19.191-2.6378-38.428-4.5875-57.584-4.7443 17.017-10.385 33.783-15.52 50.69-0.71565 2.298-1.4313 4.5959-2.147 6.8939h-34.787c-5.7867-18.901-11.952-37.692-17.464-56.672-0.65445 0.0738-1.006 7.1526-1.2992 10.417-1.1637 15.419-2.3275 30.837-3.4912 46.256h-41.664c3.9804-28.073 7.9608-56.146 11.941-84.22h55.606l13.56 45.858c1.312-1.2044 1.3511-4.1126 2.1744-5.9711l11.794-39.887h55.606c3.9805 28.073 7.9609 56.146 11.941 84.22h-41.664z"/>
    <path id="path3940" d="m364.31 529.25c-17.832 10.16-45.327 12.694-61.817 1.3752-11.833-8.122-14.686-24.199-2.3421-34.828 4.6736-4.0241 10.746-8.3016 18.355-9.3888-20.706-16.019-7.8474-31.797 12.63-37.361 15.183-4.1261 55.368-2.4665 54.21 18.611-0.63425 11.545-12.749 17.16-22.087 19.451l13.611 11.476c1.598-0.3025 12.294-5.8489 13.168-6.9559l17.878 14.116c-5.4286 4.2186-6.2631 5.428-13.391 9.3048l21.206 18.261h-43.687l-7.735-4.0618zm-16.869-53.537c2.0244-0.96475 3.606-2.0696 4.7002-3.2835 1.1044-1.225 1.6778-2.5242 1.7521-3.8792 0.0786-1.4368-0.38375-2.6472-1.4128-3.6118-1.0289-0.96438-2.3495-1.4364-3.9359-1.4364-1.6349 0-3.0589 0.53325-4.2725 1.6206-1.214 1.0879-1.862 2.3811-1.9456 3.8999-0.0709 1.2932 0.32525 2.5011 1.1721 3.612 0.85463 1.1225 2.1652 2.155 3.9422 3.0784zm-1.632 36.685-11.53-10.693c-2.1791 1.1494-3.7045 2.2166-4.5744 3.1811-0.87063 0.96487-1.3369 2.0112-1.401 3.1812-0.10137 1.8471 0.64813 3.3789 2.2716 4.597 1.6316 1.2239 3.7708 1.8266 6.4636 1.8266 1.6346 0 3.1579-0.17112 4.5961-0.51312 1.4116-0.33513 2.8122-0.86175 4.174-1.5802"/>
    <path id="path3942" d="m188.65 506.7v-57.558h37.988v56.698c0 9.6222 19.011 10.683 19.011 0v-56.698h37.444v57.558c0 17.316-12.979 28.949-47.219 28.663-34.24-0.28625-47.224-12.492-47.224-28.663"/>
   </g>
  </g>
 </g>
</svg>
