<svg width="345" height="443" viewBox="0 0 345 443" fill="none" xmlns="http://www.w3.org/2000/svg">
<path d="M24.9552 326.392C18.4714 326.392 13.3343 324.597 9.54383 321.006C5.75334 317.365 3.85809 312.178 3.85809 305.445V292.876C3.85809 286.143 5.75334 280.981 9.54383 277.39C13.3343 273.749 18.4714 271.929 24.9552 271.929C31.389 271.929 36.3516 273.699 39.8428 277.24C43.3839 280.732 45.1545 285.545 45.1545 291.679V292.128H35.4289V291.38C35.4289 288.288 34.5561 285.744 32.8105 283.749C31.1147 281.754 28.4963 280.757 24.9552 280.757C21.4639 280.757 18.7208 281.829 16.7258 283.974C14.7308 286.118 13.7333 289.036 13.7333 292.727V305.594C13.7333 309.235 14.7308 312.153 16.7258 314.347C18.7208 316.492 21.4639 317.564 24.9552 317.564C28.4963 317.564 31.1147 316.567 32.8105 314.572C34.5561 312.527 35.4289 309.983 35.4289 306.941V305.594H45.1545V306.642C45.1545 312.776 43.3839 317.614 39.8428 321.155C36.3516 324.646 31.389 326.392 24.9552 326.392ZM49.0255 325.345L62.7909 272.976H79.9978L93.7632 325.345H83.5888L80.7459 313.824H62.0428L59.1999 325.345H49.0255ZM64.362 304.697H78.4267L72.0677 279.186H70.721L64.362 304.697ZM100.032 325.345V272.976H121.578C124.869 272.976 127.762 273.649 130.256 274.996C132.799 276.293 134.77 278.138 136.166 280.532C137.612 282.926 138.336 285.769 138.336 289.061V290.108C138.336 293.35 137.587 296.193 136.091 298.637C134.645 301.031 132.65 302.901 130.106 304.248C127.612 305.544 124.77 306.193 121.578 306.193H109.907V325.345H100.032ZM109.907 297.215H120.605C122.949 297.215 124.844 296.567 126.291 295.27C127.737 293.973 128.46 292.203 128.46 289.958V289.21C128.46 286.966 127.737 285.195 126.291 283.899C124.844 282.602 122.949 281.954 120.605 281.954H109.907V297.215ZM145.182 325.345V272.976H155.057V325.345H145.182ZM174.634 325.345L161.317 272.976H171.491L182.564 318.986H183.611L194.683 272.976H204.858L191.541 325.345H174.634ZM204.13 325.345L217.895 272.976H235.102L248.867 325.345H238.693L235.85 313.824H217.147L214.304 325.345H204.13ZM219.466 304.697H233.531L227.172 279.186H225.825L219.466 304.697ZM255.136 325.345V272.976H277.879C281.17 272.976 284.038 273.55 286.482 274.697C288.926 275.844 290.821 277.465 292.168 279.56C293.514 281.654 294.188 284.123 294.188 286.966V287.864C294.188 291.006 293.44 293.549 291.943 295.495C290.447 297.44 288.602 298.861 286.407 299.759V301.106C288.402 301.205 289.948 301.904 291.046 303.2C292.143 304.447 292.692 306.118 292.692 308.213V325.345H282.816V309.634C282.816 308.437 282.492 307.465 281.844 306.716C281.245 305.968 280.223 305.594 278.776 305.594H265.011V325.345H255.136ZM265.011 296.617H276.831C279.175 296.617 280.996 295.993 282.293 294.746C283.639 293.45 284.313 291.754 284.313 289.659V288.911C284.313 286.816 283.664 285.146 282.367 283.899C281.071 282.602 279.225 281.954 276.831 281.954H265.011V296.617ZM298.814 325.345L312.579 272.976H329.786L343.552 325.345H333.377L330.534 313.824H311.831L308.988 325.345H298.814ZM314.15 304.697H328.215L321.856 279.186H320.509L314.15 304.697ZM100.375 420.345V372.315H82.8693V367.976H122.669V372.315H105.163V420.345H100.375ZM131.19 420.345V367.976H162.835V372.315H135.978V391.916H160.741V396.255H135.978V416.006H163.135V420.345H131.19ZM192.191 421.392C186.056 421.392 181.143 419.597 177.453 416.006C173.812 412.365 171.991 407.053 171.991 400.071V388.25C171.991 381.268 173.812 375.981 177.453 372.39C181.143 368.749 186.056 366.929 192.191 366.929C198.275 366.929 202.914 368.649 206.106 372.091C209.347 375.482 210.968 380.121 210.968 386.006V386.38H206.18V385.856C206.18 381.567 205.033 378.076 202.739 375.383C200.495 372.639 196.979 371.268 192.191 371.268C187.353 371.268 183.562 372.739 180.819 375.682C178.126 378.624 176.779 382.764 176.779 388.101V400.22C176.779 405.557 178.126 409.696 180.819 412.639C183.562 415.582 187.353 417.053 192.191 417.053C196.979 417.053 200.495 415.706 202.739 413.013C205.033 410.27 206.18 406.754 206.18 402.465V401.342H210.968V402.315C210.968 408.2 209.347 412.863 206.106 416.305C202.914 419.696 198.275 421.392 192.191 421.392ZM221.564 420.345V367.976H226.352V391.916H252.985V367.976H257.773V420.345H252.985V396.255H226.352V420.345H221.564Z" fill="#1A131A"/>
<g filter="url(#filter0_d_140_3)">
<path d="M150.171 5.95231C149.055 4.89655 147.451 4.53478 145.991 5.00919C137.435 7.78738 131.738 12.1502 128.272 17.4405C124.831 22.6916 123.858 28.4445 123.985 33.5653C124.112 38.6668 125.332 43.3223 126.479 46.6454C126.592 46.9722 126.704 47.2876 126.815 47.5907C126.338 47.7366 125.836 47.8923 125.315 48.0567C121.915 49.1312 117.541 50.6379 114.177 52.2552C114.075 52.3041 113.975 52.3571 113.878 52.4141C104.46 57.9168 98.5664 62.2276 94.9734 65.2337C93.1754 66.738 91.9478 67.9204 91.1401 68.7673C90.7361 69.191 90.4365 69.5315 90.2228 69.7869C90.1159 69.9147 90.0304 70.0212 89.9641 70.1064C89.9309 70.149 89.9025 70.1863 89.8786 70.2181L89.846 70.2619L89.8322 70.2808L89.8259 70.2895L89.8229 70.2937C89.8214 70.2957 89.8199 70.2977 93.2218 72.7539L89.8199 70.2977C88.7038 71.8435 88.7702 73.9476 89.9817 75.4199C91.1031 76.7828 92.9447 77.2873 94.5859 76.7221C92.8805 78.5676 91.1577 80.6197 89.4908 82.8915C81.4531 93.846 74.4567 110.021 74.4448 133.988C73.6825 160.668 87.3218 180.163 100.774 192.791C107.516 199.12 114.29 203.806 119.376 206.911C121.923 208.466 124.058 209.632 125.57 210.415C126.326 210.807 126.927 211.103 127.347 211.305C127.557 211.406 127.722 211.483 127.838 211.537C127.897 211.564 127.943 211.586 127.976 211.601L128.005 211.614L128.005 211.614L128.007 211.615L128.015 211.618L128.017 211.619L128.03 211.625L128.035 211.628L128.05 211.635L128.196 211.702C128.325 211.762 128.518 211.852 128.769 211.969C129.27 212.204 130.001 212.549 130.912 212.986C132.735 213.86 135.273 215.1 138.129 216.559C143.889 219.501 150.77 223.25 155.718 226.661C159.168 229.04 163.429 232.461 166.889 235.346C168.606 236.778 170.1 238.056 171.164 238.975C171.696 239.435 172.12 239.804 172.409 240.058C172.485 240.124 172.552 240.183 172.609 240.233C172.661 240.278 172.704 240.317 172.74 240.348L172.824 240.422L172.844 240.439L172.849 240.444L172.849 240.444C174.231 241.666 176.249 241.843 177.821 240.88C179.394 239.916 180.153 238.039 179.692 236.253L175.629 237.302L179.692 236.253L179.692 236.252L179.692 236.251L179.691 236.247L179.686 236.228L179.667 236.155L179.595 235.874L179.325 234.827C179.096 233.937 178.775 232.693 178.412 231.277C177.685 228.443 176.786 224.927 176.094 222.182C175.213 218.686 174.234 215.622 173.359 212.884C172.969 211.662 172.599 210.505 172.268 209.404C171.35 206.347 170.604 203.355 170.188 199.709C171.129 201.62 171.996 203.409 173.068 205.976C173.934 208.049 174.976 210.773 175.813 213.013C176.229 214.126 176.589 215.106 176.846 215.808C176.974 216.158 177.076 216.439 177.146 216.631L177.225 216.851L177.245 216.907L177.25 216.921L177.252 216.924L177.252 216.925L177.252 216.925C177.859 218.613 179.472 219.728 181.266 219.699C183.059 219.671 184.636 218.506 185.19 216.8L181.2 215.504C185.19 216.8 185.191 216.799 185.191 216.798L185.192 216.795L185.194 216.788L185.2 216.771L185.215 216.723C185.227 216.684 185.243 216.633 185.263 216.569C185.301 216.441 185.354 216.263 185.417 216.037C185.544 215.585 185.714 214.94 185.904 214.118C186.285 212.475 186.748 210.12 187.106 207.181C187.614 203.005 187.913 197.629 187.454 191.43C187.833 192.266 188.17 193.069 188.462 193.803C188.854 194.787 189.153 195.62 189.353 196.2C189.453 196.49 189.527 196.716 189.575 196.864C189.599 196.938 189.616 196.993 189.627 197.026L189.638 197.061L189.638 197.062C189.638 197.063 189.638 197.063 189.638 197.063M150.171 5.95231L195.303 188.425C195.664 189.239 195.983 190.006 196.26 190.701C196.708 191.827 197.053 192.786 197.289 193.471C197.406 193.813 197.497 194.089 197.56 194.283C197.591 194.38 197.616 194.457 197.633 194.512L197.654 194.579L197.66 194.599L197.662 194.606L197.663 194.609L197.664 194.61C197.664 194.611 197.664 194.611 193.651 195.837M150.171 5.95231C153.362 8.97195 155.839 11.7256 157.664 15.9038C159.21 19.4424 160.202 23.8053 161.094 29.8967C161.233 29.9084 161.383 29.9207 161.547 29.9338L161.696 29.9458C162.868 30.0392 164.414 30.1623 166.144 30.5009C166.344 29.5367 166.619 28.4149 167.01 27.2695C168.787 22.0705 172.902 16.2334 182.875 12.5969C184.117 12.1442 185.499 12.3028 186.605 13.0248C193.927 17.8019 195.647 25.2855 195.553 31.3342C195.501 34.6888 194.899 37.8269 194.276 40.2355M150.171 5.95231L194.276 40.2355M189.638 197.063C189.638 197.063 189.638 197.062 193.651 195.837M189.638 197.063C190.173 198.813 191.78 200.015 193.61 200.033C195.44 200.05 197.071 198.88 197.639 197.14L193.651 195.837M189.638 197.063L194.276 40.2355M193.651 195.837C197.639 197.14 197.64 197.14 197.64 197.139L197.64 197.137L197.642 197.133L197.645 197.122L197.656 197.09C197.664 197.065 197.674 197.032 197.687 196.99C197.713 196.908 197.748 196.792 197.792 196.647C197.878 196.356 197.997 195.942 198.135 195.42C198.411 194.376 198.768 192.891 199.107 191.076C199.782 187.461 200.402 182.45 200.136 176.951C200.133 176.894 200.129 176.837 200.124 176.78C199.962 174.962 199.765 173.304 199.579 171.735C199.243 168.901 198.94 166.357 198.937 163.677C198.933 159.833 199.605 156.462 201.735 153.249C207.113 145.138 214.703 143.17 226.153 142.998C228.197 142.967 229.74 143.539 232.031 144.39C232.166 144.44 232.304 144.491 232.445 144.543C234.915 145.457 238.129 146.563 242.314 145.896C250.614 144.573 255.001 140.58 259.956 135.275C267.913 126.758 268.954 118.609 270.072 108.449C271.272 97.5411 271.002 88.6999 265.634 79.0695C265.597 79.0034 265.559 78.9382 265.518 78.8741C261.115 71.8931 254.888 67.8391 250.309 65.1889C231.149 54.1007 220.035 48.8627 194.276 40.2355M159.553 29.7016C159.552 29.7022 159.569 29.7082 159.609 29.7181C159.574 29.706 159.554 29.7011 159.553 29.7016Z" fill="#1A131A" stroke="white" stroke-width="8.39191" stroke-linejoin="round"/>
<path d="M138.933 24.8963C140.291 22.6483 143.52 19.9795 143.52 19.9795C143.52 19.9795 145.833 25.6302 147.124 29.3213C148.628 33.6209 147.789 36.8549 150.565 40.466C154.906 46.1147 160.86 44.7913 167.767 46.53C193.947 53.1196 222.651 66.8526 237.887 73.4083C237.887 73.4083 251.599 79.4054 255.745 87.1752C259.649 94.4902 258.53 100.066 257.711 108.317C257.086 114.62 257.352 118.823 253.779 124.051C250.232 129.241 246.919 132.703 240.672 133.393C236.918 133.807 231.17 131.59 231.17 131.59C231.17 131.59 237.481 130.869 241.164 129.295C245.146 127.594 250.339 123.068 250.339 123.068C250.339 123.068 243.314 126.442 238.543 127.82C232.084 129.687 228.108 129.019 221.504 130.279C216.153 131.3 207.906 133.393 207.906 133.393L222.651 124.051C210.57 126.695 203.445 128.651 190.048 132.901L216.917 118.479L204.957 119.298C214.496 116.371 219.183 114.202 226.747 109.628L191.195 111.923L215.77 102.253C215.77 102.253 202.862 102.856 194.799 104.548C181.438 107.351 162.197 117.167 162.197 117.167C162.197 117.167 166.426 112.658 169.569 110.284C178.133 103.815 184.808 102.91 195.291 100.614C204.701 98.5532 219.866 98.4838 219.866 98.4838C219.866 98.4838 214.248 96.7014 210.527 96.1893C205.647 95.5174 197.912 96.1893 197.912 96.1893C197.912 96.1893 201.876 93.8 204.629 92.7475C206.501 92.0319 209.544 91.2725 209.544 91.2725C209.544 91.2725 201.495 89.6777 196.274 89.6336C189.026 89.5723 177.925 92.4198 177.925 92.4198C177.925 92.4198 183.607 87.9678 187.755 86.028C193.546 83.3193 203.646 82.0946 203.646 82.0946C203.646 82.0946 195.87 80.1985 191.195 78.1612C185.672 75.7543 177.925 70.2943 177.925 70.2943C191.387 69.8979 199.738 71.7809 216.098 79.6362C216.098 79.6362 204.427 70.0633 194.799 65.8693C183.445 60.9228 173.998 61.9144 162.361 57.6747C154.23 54.7123 147.492 55.5508 142.045 48.8245C138.65 44.6315 137.186 41.4234 136.803 36.0409C136.489 31.621 136.642 28.6886 138.933 24.8963Z" fill="#EDB159"/>
<path d="M96.3336 100.287C99.1053 94.1568 106 86.0283 106 86.0283C106 86.0283 100.33 95.8926 97.4805 102.581C94.9024 108.634 91.9102 118.479 91.9102 118.479C91.9102 118.479 93.3216 106.949 96.3336 100.287Z" fill="#EDB159"/>
<path d="M102.068 145.521C102.685 140.169 105.181 132.082 105.181 132.082C105.181 132.082 103.972 140.654 104.034 146.177C104.074 149.77 104.689 155.355 104.689 155.355C104.689 155.355 105.597 151.434 106.327 148.963C107.016 146.634 108.293 143.063 108.293 143.063C108.293 143.063 107.92 153.803 108.785 160.599C109.52 166.377 109.494 169.881 111.898 175.186C113.225 178.115 116.157 182.233 116.157 182.233C116.157 182.233 116.04 180.13 116.157 178.791C116.282 177.365 116.813 175.186 116.813 175.186C116.813 175.186 118.571 181.803 120.253 185.839C121.916 189.828 125.332 195.672 125.332 195.672C125.332 195.672 122.024 191.725 120.253 188.952C118.988 186.972 117.304 183.708 117.304 183.708L117.632 187.477C117.632 187.477 113.76 182.404 111.898 178.791C110.133 175.369 108.293 169.613 108.293 169.613V175.186L108.785 180.102C108.785 180.102 104.076 170.505 102.723 163.877C101.288 156.849 101.246 152.647 102.068 145.521Z" fill="#EDB159"/>
<path d="M152.528 153.388C155.731 150.91 161.375 147.979 161.375 147.979C161.375 147.979 153.131 155.843 148.924 161.746C145.248 166.905 143.296 169.979 140.896 175.841C138.15 182.55 136.473 193.869 136.473 193.869C136.473 193.869 134.528 180.86 136.8 173.055C138.384 167.613 140.497 164.108 143.353 160.108C145.811 156.666 149.907 154.535 149.907 154.535C147.948 156.329 147.223 157.238 146.794 158.632C146.794 158.632 150.128 155.245 152.528 153.388Z" fill="#EDB159"/>
<path d="M162.522 162.567C165.766 158.849 171.205 153.389 171.205 153.389C171.205 153.389 165.53 161.259 162.85 166.828C159.383 174.032 157.753 178.416 156.624 186.331C155.666 193.047 155.878 196.96 156.624 203.704C156.974 206.862 157.935 211.734 157.935 211.734C157.935 211.734 155.748 208.029 154.658 205.506C153.663 203.202 152.528 199.442 152.528 199.442C152.528 199.442 152.484 202.739 152.528 204.851C152.584 207.541 152.856 211.734 152.856 211.734C152.856 211.734 150.227 205.771 149.252 201.737C147.967 196.426 147.621 193.261 147.941 187.806C148.311 181.499 148.924 177.743 151.709 172.072C153.713 167.992 158.426 162.567 158.426 162.567C158.426 162.567 156.946 165.37 156.46 167.319C156.147 168.575 155.969 170.597 155.969 170.597C155.969 170.597 159.861 165.617 162.522 162.567Z" fill="#EDB159"/>
<path d="M216.911 80.1297C216.911 80.1297 199.054 63.5766 179.394 61.118C153.253 57.849 128.218 71.9351 116.318 85.0463C91.4158 112.485 97.1499 139.295 97.1499 139.295C97.1499 139.295 99.9899 125.438 103.703 117.169C106.779 110.319 110.546 105.092 114.025 100.452C118.448 94.5522 124.095 89.458 132.046 84.396C137.575 80.876 147.119 77.0156 147.119 77.0156L135.814 85.0463C135.814 85.0463 142.022 82.2313 146.136 80.7851C151.335 78.9575 160.717 77.0156 160.717 77.0156C160.717 77.0156 137.035 87.177 123.691 104.549C111.731 120.119 110.42 138.147 110.42 138.147C110.42 138.147 114.389 127.721 118.776 122.25C131.391 106.516 135.814 106.024 135.814 106.024C135.814 106.024 131.19 111.075 128.77 114.711C126.468 118.167 123.691 124.053 123.691 124.053L133.521 115.858C133.521 115.858 123.369 125.856 119.103 140.278C116.638 148.615 115.991 163.551 115.991 163.551C115.991 163.551 119.248 145.44 128.77 133.395C137.032 122.943 144.497 113.236 158.751 106.024C176.816 96.8844 182.67 98.9771 182.67 98.9771C182.67 98.9771 171.809 103.102 165.796 107.336C152.525 116.678 151.051 120.283 151.051 120.283C151.051 120.283 171.778 107.925 184.472 103.566C198.46 98.7634 220.024 98.4856 220.024 98.4856C220.024 98.4856 213.394 96.1105 209.375 95.6994C204.792 95.2308 198.071 96.1911 198.071 96.1911C198.071 96.1911 200.692 94.7124 203.149 93.7327C205.399 92.8356 209.866 91.2743 209.866 91.2743C209.866 91.2743 201.752 89.1166 195.777 89.3076C189.353 89.513 178.247 92.2577 178.247 92.2577C178.247 92.2577 185.006 87.1758 190.37 85.0463C195.131 83.1566 204.296 82.0964 204.296 82.0964L175.626 71.1155C175.626 71.1155 188.879 70.6727 196.924 72.9184C211.013 76.8519 216.911 80.1297 216.911 80.1297Z" fill="white"/>
<path d="M200.856 103.566C206.441 102.761 216.256 102.091 216.256 102.091C216.256 102.091 208.066 105.855 202.166 108.319C198.97 109.654 192.664 111.597 192.664 111.597C192.664 111.597 199.82 111.099 204.296 110.941C209.941 110.743 212.271 110.486 217.894 109.958C221.609 109.609 227.396 109.466 227.396 109.466C227.396 109.466 222.172 112.469 218.877 114.219C213 117.341 209.291 118.215 203.149 120.775L179.557 130.608C179.557 130.608 183.344 126.386 186.111 124.053C189.204 121.443 194.63 118.153 194.63 118.153C194.63 118.153 170.441 124.209 157.932 133.395C148.188 140.549 142.928 145.592 136.797 156.012C132.633 163.089 128.933 175.515 128.933 175.515C128.933 175.515 126.804 158.798 139.419 138.311C146.512 126.791 154.109 122.67 165.796 115.858C178.331 108.551 186.496 105.636 200.856 103.566Z" fill="white"/>
<path fill-rule="evenodd" clip-rule="evenodd" d="M127.702 116.427C125.692 119.822 123.694 124.054 123.694 124.054L133.524 115.859C133.524 115.859 123.372 125.857 119.107 140.279C116.641 148.616 115.994 163.552 115.994 163.552C115.994 163.552 117.119 157.298 119.978 149.697C121.581 143.698 123.47 137.57 125.493 132.905C127.975 127.178 129.714 124.099 133.029 118.81C134.475 116.502 136.434 113.77 138.223 111.374C136.303 112.24 132.638 113.938 127.702 116.427ZM113.57 123.947C110.865 132.082 110.424 138.148 110.424 138.148C110.424 138.148 112.314 133.182 114.928 128.305C115.694 126.219 116.564 124.01 117.537 121.758C116.254 122.456 114.931 123.186 113.57 123.947ZM136.347 91.9111C131.819 95.5375 127.365 99.7711 123.694 104.55C120.799 108.319 118.529 112.232 116.749 115.998C118.099 115.658 119.434 115.329 120.74 115.011C121.849 112.89 123.051 110.802 124.346 108.813C129.67 100.633 140.565 89.8011 140.565 89.8011L136.347 91.9111ZM96.6175 134.009C96.7405 137.365 97.1535 139.296 97.1535 139.296C97.1535 139.296 97.6984 136.637 98.623 132.953C98.6305 132.883 98.6381 132.813 98.6457 132.742C97.9738 133.159 97.2977 133.581 96.6175 134.009ZM166.302 60.8598C145.173 62.5813 126.211 74.151 116.322 85.0473C104.298 98.2956 99.4167 111.397 97.5834 121.405C98.5575 121.084 99.5672 120.763 100.605 120.443C101.221 117.696 101.971 115.058 102.884 112.746C107.473 101.123 111.815 94.9386 120.741 86.1955C128.438 78.6566 133.922 75.5296 143.514 70.6258C153.371 65.5865 170.219 61.12 170.219 61.12L167.038 60.8359C166.793 60.8434 166.547 60.8514 166.302 60.8598ZM170.662 113.132C171.071 112.998 171.471 112.869 171.857 112.746C177.126 111.072 185.455 108.813 185.455 108.813C185.455 108.813 174.561 113.981 168.089 118.154L167.912 118.269C160.21 123.236 155.692 126.149 149.412 132.905C143.43 139.34 140.681 143.625 136.633 151.425C133.655 157.164 131.534 165.248 130.019 172.127C129.336 174.177 128.937 175.516 128.937 175.516C128.937 175.516 126.807 158.799 139.422 138.312C146.24 127.24 153.523 123.002 164.455 116.642L164.455 116.641C164.897 116.384 165.345 116.124 165.799 115.859C167.491 114.873 169.103 113.967 170.662 113.132ZM134.995 111.435C134.779 111.577 134.552 111.722 134.318 111.869C136.148 111.465 137.599 111.154 138.536 110.955C140.883 107.827 142.859 105.371 142.859 105.371C142.859 105.371 138.235 109.304 134.995 111.435Z" fill="#EDB159"/>
<path d="M240.505 90.4542C236.182 92.6804 240.505 102.91 240.505 102.91C240.505 102.91 236.733 99.1012 235.426 96.0265C233.935 92.5197 233.087 90.0262 234.116 86.3569C235.17 82.5931 236.805 79.9108 240.505 78.654C244.165 77.4107 246.864 78.7832 250.171 80.7846C253.354 82.7106 254.819 84.626 256.397 87.9958C258.07 91.5698 257.871 97.9933 257.871 97.9933C257.871 97.9933 258.524 107.292 257.38 113.071C256.597 117.023 254.267 122.905 254.267 122.905C254.267 122.905 255.655 113.126 254.595 107.007C253.505 100.718 254.312 94.7956 248.697 91.7654C245.845 90.2268 243.386 88.971 240.505 90.4542Z" fill="white"/>
<path d="M249.515 91.6017C250.729 90.6926 251.439 89.7621 252.955 89.7989C255.909 89.8705 256.254 94.2311 255.249 97.0102C254.313 99.5989 252.253 100.831 249.515 101.107C246.611 101.401 243.379 100.691 242.798 97.8296C242.419 95.9648 242.572 93.6199 244.436 93.2406C245.487 93.0268 246 94.2421 247.057 94.0601C248.395 93.8298 248.428 92.4152 249.515 91.6017Z" fill="#1A131A"/>
<path d="M142.872 45.5466C139.305 40.7805 142.544 30.3047 142.544 30.3047C142.544 30.3047 144.929 38.3378 148.442 42.1049C153.109 47.109 164.334 49.4801 164.334 49.4801C164.334 49.4801 159.091 51.9384 153.03 50.7912C146.968 49.6439 145.547 49.1215 142.872 45.5466Z" fill="#1A131A"/>
<path d="M175.304 77.5093C172.849 75.6949 171.044 70.9537 171.044 70.9537L178.744 68.6592L187.427 69.9703L191.359 76.526C191.359 76.526 186.485 79.5507 183.004 79.6399C179.885 79.7199 177.813 79.364 175.304 77.5093Z" fill="white"/>
<path d="M180.709 76.1986C179.119 74.7564 178.251 71.2818 178.251 71.2818C178.251 71.2818 174.663 71.8536 172.353 71.7735C168.955 71.6556 163.834 69.9707 163.834 69.9707C163.834 69.9707 171.497 66.1986 176.777 66.0373C181.342 65.8978 184.12 66.3714 188.245 68.3318C192.752 70.4734 193.475 74.405 197.911 76.6903C198.726 77.1098 200.041 77.6736 200.041 77.6736C200.041 77.6736 191.289 79.5161 185.951 78.1653C183.832 77.6288 182.328 77.6681 180.709 76.1986Z" fill="#1A131A"/>
<ellipse cx="1.80215" cy="1.80281" rx="1.80215" ry="1.80281" transform="matrix(-1 0 0 1 184.639 70.625)" fill="white"/>
</g>
<defs>
<filter id="filter0_d_140_3" x="65.1461" y="0.607422" width="214.78" height="255.231" filterUnits="userSpaceOnUse" color-interpolation-filters="sRGB">
<feFlood flood-opacity="0" result="BackgroundImageFix"/>
<feColorMatrix in="SourceAlpha" type="matrix" values="0 0 0 0 0 0 0 0 0 0 0 0 0 0 0 0 0 0 127 0" result="hardAlpha"/>
<feOffset dy="5.0726"/>
<feGaussianBlur stdDeviation="2.5363"/>
<feComposite in2="hardAlpha" operator="out"/>
<feColorMatrix type="matrix" values="0 0 0 0 0 0 0 0 0 0 0 0 0 0 0 0 0 0 0.25 0"/>
<feBlend mode="normal" in2="BackgroundImageFix" result="effect1_dropShadow_140_3"/>
<feBlend mode="normal" in="SourceGraphic" in2="effect1_dropShadow_140_3" result="shape"/>
</filter>
</defs>
</svg>
