<svg width="345" height="455" viewBox="0 0 345 455" fill="none" xmlns="http://www.w3.org/2000/svg">
<g filter="url(#filter0_d_174_30)">
<path d="M156.54 31.5155C154.577 16.7952 152.614 13.3604 146.562 7.63574C115.323 17.7766 131.842 48.8528 131.842 48.8528C131.842 48.8528 121.477 51.6203 115.323 54.5774C96.8404 65.3726 92.5876 71.2606 92.5876 71.2606C92.5876 71.2606 103.649 66.1687 111.234 65.6995C104.855 71.2606 78.0307 86.3083 78.0307 132.432C76.5589 182.482 129.062 206.034 129.062 206.034C129.062 206.034 147.002 214.273 157.357 221.409C164.577 226.384 174.858 235.475 174.858 235.475C174.858 235.475 172.646 226.907 171.26 221.409C168.769 211.524 165.772 206.225 165.045 196.057C164.064 176.921 167.008 172.341 167.008 172.341C167.008 172.341 167.662 183.136 169.624 188.533C172.405 194.912 173.832 197.009 176.167 202.599C177.959 206.89 180.419 213.722 180.419 213.722C180.419 213.722 184.672 200.637 181.564 182.482C180.256 174.304 182.546 171.196 182.546 171.196C182.546 171.196 183.854 177.084 187.943 183.136C191.051 188.206 192.85 194.094 192.85 194.094C192.85 194.094 195.631 185.59 195.14 175.449C194.322 166.289 191.991 157.479 197.43 149.279C203.976 139.41 213.393 137.354 225.235 137.175C231.41 137.082 234.674 141.092 240.773 140.119C247.654 139.023 251.227 135.887 255.984 130.797C262.911 123.384 263.871 116.51 264.98 106.426C266.138 95.9026 265.797 88.1075 261.055 79.6021C257.217 73.5188 251.732 69.89 247.316 67.3351C227.525 55.8862 216.566 50.8158 188.27 41.4926C189.415 38.2217 194.813 22.5198 183.527 15.1594C166.026 21.5384 170.769 34.6238 167.825 34.1324C162.428 32.0061 157.357 33.3147 156.54 31.5155Z" fill="white" stroke="#FEFAFC" stroke-width="15" stroke-linejoin="round"/>
<path d="M156.54 31.5155C154.577 16.7952 152.614 13.3604 146.562 7.63574C115.323 17.7766 131.842 48.8528 131.842 48.8528C131.842 48.8528 121.477 51.6203 115.323 54.5774C96.8404 65.3726 92.5876 71.2606 92.5876 71.2606C92.5876 71.2606 103.649 66.1687 111.234 65.6995C104.855 71.2606 78.0307 86.3083 78.0307 132.432C76.5589 182.482 129.062 206.034 129.062 206.034C129.062 206.034 147.002 214.273 157.357 221.409C164.577 226.384 174.858 235.475 174.858 235.475C174.858 235.475 172.646 226.907 171.26 221.409C168.769 211.524 165.772 206.225 165.045 196.057C164.064 176.921 167.008 172.341 167.008 172.341C167.008 172.341 167.662 183.136 169.624 188.533C172.405 194.912 173.832 197.009 176.167 202.599C177.959 206.89 180.419 213.722 180.419 213.722C180.419 213.722 184.672 200.637 181.564 182.482C180.256 174.304 182.546 171.196 182.546 171.196C182.546 171.196 183.854 177.084 187.943 183.136C191.051 188.206 192.85 194.094 192.85 194.094C192.85 194.094 195.631 185.59 195.14 175.449C194.322 166.289 191.991 157.479 197.43 149.279C203.976 139.41 213.393 137.354 225.235 137.175C231.41 137.082 234.674 141.092 240.773 140.119C247.654 139.023 251.227 135.887 255.984 130.797C262.911 123.384 263.871 116.51 264.98 106.426C266.138 95.9026 265.797 88.1075 261.055 79.6021C257.217 73.5188 251.732 69.89 247.316 67.3351C227.525 55.8862 216.566 50.8158 188.27 41.4926C189.415 38.2217 194.813 22.5198 183.527 15.1594C166.026 21.5384 170.769 34.6238 167.825 34.1324C162.428 32.0061 157.357 33.3147 156.54 31.5155Z" fill="#1A131A"/>
<path d="M138.223 23.5015C139.579 21.2582 142.803 18.5947 142.803 18.5947C142.803 18.5947 145.112 24.234 146.401 27.9177C147.902 32.2085 147.065 35.436 149.836 39.0397C154.17 44.6771 160.114 43.3563 167.01 45.0915C193.146 51.6677 221.802 65.3729 237.013 71.9153C237.013 71.9153 250.702 77.9003 254.841 85.6544C258.739 92.9546 257.622 98.5188 256.804 106.754C256.18 113.043 256.446 117.238 252.879 122.455C249.337 127.635 246.03 131.09 239.794 131.778C236.046 132.192 230.307 129.979 230.307 129.979C230.307 129.979 236.608 129.259 240.285 127.689C244.26 125.992 249.444 121.474 249.444 121.474C249.444 121.474 242.431 124.842 237.668 126.217C231.219 128.08 227.25 127.414 220.657 128.671C215.315 129.689 207.082 131.778 207.082 131.778L221.802 122.455C209.741 125.094 202.628 127.046 189.254 131.288L216.078 116.894L204.138 117.712C213.661 114.791 218.34 112.626 225.891 108.062L190.399 110.352L214.933 100.702C214.933 100.702 202.047 101.304 193.997 102.992C180.658 105.789 161.449 115.586 161.449 115.586C161.449 115.586 165.671 111.086 168.809 108.716C177.358 102.261 184.023 101.358 194.488 99.0663C203.882 97.0093 219.022 96.94 219.022 96.94C219.022 96.94 213.413 95.1613 209.699 94.6502C204.826 93.9797 197.105 94.6502 197.105 94.6502C197.105 94.6502 201.062 92.2658 203.811 91.2154C205.679 90.5013 208.717 89.7434 208.717 89.7434C208.717 89.7434 200.682 88.1519 195.469 88.1078C188.233 88.0466 177.15 90.8883 177.15 90.8883C177.15 90.8883 182.823 86.4453 186.964 84.5095C192.746 81.8063 202.829 80.584 202.829 80.584C202.829 80.584 195.066 78.6918 190.399 76.6586C184.885 74.2566 177.15 68.8077 177.15 68.8077C190.59 68.4121 198.927 70.2913 215.26 78.1306C215.26 78.1306 203.609 68.5771 193.997 64.3916C182.661 59.4551 173.23 60.4447 161.612 56.2136C153.495 53.2572 146.768 54.094 141.331 47.3813C137.941 43.1969 136.479 39.9952 136.097 34.6236C135.783 30.2127 135.936 27.2862 138.223 23.5015Z" fill="#EDB159"/>
<path d="M95.6936 98.7405C98.4606 92.6228 105.344 84.5107 105.344 84.5107C105.344 84.5107 99.6831 94.355 96.8385 101.03C94.2647 107.07 91.2774 116.896 91.2774 116.896C91.2774 116.896 92.6865 105.389 95.6936 98.7405Z" fill="#EDB159"/>
<path d="M101.418 143.883C102.034 138.542 104.526 130.471 104.526 130.471C104.526 130.471 103.319 139.026 103.381 144.537C103.421 148.123 104.035 153.697 104.035 153.697C104.035 153.697 104.942 149.784 105.671 147.318C106.358 144.993 107.633 141.43 107.633 141.43C107.633 141.43 107.261 152.148 108.124 158.931C108.858 164.697 108.832 168.193 111.232 173.487C112.557 176.411 115.484 180.521 115.484 180.521C115.484 180.521 115.368 178.422 115.484 177.086C115.609 175.663 116.139 173.487 116.139 173.487C116.139 173.487 117.894 180.092 119.573 184.119C121.234 188.1 124.644 193.932 124.644 193.932C124.644 193.932 121.341 189.993 119.573 187.227C118.311 185.25 116.629 181.993 116.629 181.993L116.956 185.754C116.956 185.754 113.091 180.691 111.232 177.086C109.47 173.67 107.633 167.926 107.633 167.926V173.487L108.124 178.394C108.124 178.394 103.423 168.816 102.072 162.202C100.64 155.188 100.598 150.994 101.418 143.883Z" fill="#EDB159"/>
<path d="M151.795 151.734C154.992 149.261 160.627 146.336 160.627 146.336C160.627 146.336 152.396 154.184 148.196 160.076C144.526 165.224 142.578 168.291 140.182 174.142C137.44 180.837 135.766 192.133 135.766 192.133C135.766 192.133 133.825 179.151 136.093 171.361C137.674 165.931 139.783 162.433 142.635 158.44C145.089 155.005 149.178 152.879 149.178 152.879C147.222 154.669 146.499 155.576 146.07 156.968C146.07 156.968 149.399 153.587 151.795 151.734Z" fill="#EDB159"/>
<path d="M161.781 160.894C165.019 157.183 170.449 151.734 170.449 151.734C170.449 151.734 164.783 159.589 162.108 165.146C158.647 172.336 157.02 176.711 155.892 184.61C154.936 191.313 155.147 195.218 155.892 201.947C156.241 205.099 157.201 209.962 157.201 209.962C157.201 209.962 155.018 206.264 153.93 203.747C152.936 201.447 151.803 197.695 151.803 197.695C151.803 197.695 151.759 200.985 151.803 203.092C151.86 205.777 152.13 209.962 152.13 209.962C152.13 209.962 149.506 204.011 148.532 199.985C147.25 194.684 146.904 191.526 147.224 186.082C147.593 179.787 148.205 176.04 150.986 170.38C152.986 166.308 157.692 160.894 157.692 160.894C157.692 160.894 156.213 163.692 155.729 165.637C155.417 166.89 155.238 168.908 155.238 168.908C155.238 168.908 159.124 163.938 161.781 160.894Z" fill="#EDB159"/>
<path d="M216.081 78.6205C216.081 78.6205 198.253 62.1009 178.626 59.6473C152.528 56.385 127.535 70.4425 115.655 83.5271C90.7939 110.91 96.5185 137.666 96.5185 137.666C96.5185 137.666 99.3537 123.837 103.061 115.585C106.132 108.749 109.892 103.533 113.365 98.9018C117.781 93.0138 123.419 87.9299 131.357 82.8781C136.876 79.3653 146.404 75.5127 146.404 75.5127L135.119 83.5271C135.119 83.5271 141.316 80.7178 145.423 79.2746C150.613 77.4507 159.98 75.5127 159.98 75.5127C159.98 75.5127 136.337 85.6536 123.015 102.991C111.075 118.529 109.767 136.521 109.767 136.521C109.767 136.521 113.729 126.116 118.108 120.655C130.703 104.954 135.119 104.463 135.119 104.463C135.119 104.463 130.502 109.503 128.086 113.132C125.788 116.581 123.015 122.454 123.015 122.454L132.829 114.276C132.829 114.276 122.694 124.254 118.436 138.647C115.974 146.967 115.328 161.873 115.328 161.873C115.328 161.873 118.58 143.798 128.086 131.778C136.334 121.347 143.787 111.66 158.017 104.463C176.052 95.3413 181.897 97.4298 181.897 97.4298C181.897 97.4298 171.054 101.546 165.05 105.771C151.802 115.094 150.33 118.693 150.33 118.693C150.33 118.693 171.023 106.36 183.696 102.01C197.661 97.2164 219.189 96.9392 219.189 96.9392C219.189 96.9392 212.57 94.5689 208.557 94.1587C203.982 93.691 197.272 94.6494 197.272 94.6494C197.272 94.6494 199.889 93.1737 202.342 92.196C204.588 91.3007 209.048 89.7426 209.048 89.7426C209.048 89.7426 200.947 87.5892 194.982 87.7798C188.569 87.9848 177.481 90.7239 177.481 90.7239C177.481 90.7239 184.228 85.6524 189.584 83.5271C194.337 81.6413 203.487 80.5832 203.487 80.5832L174.864 69.6245C174.864 69.6245 188.096 69.1826 196.127 71.4238C210.193 75.3493 216.081 78.6205 216.081 78.6205Z" fill="#FEFAFC"/>
<path d="M200.052 102.01C205.628 101.206 215.427 100.538 215.427 100.538C215.427 100.538 207.251 104.294 201.361 106.753C198.17 108.085 191.874 110.024 191.874 110.024C191.874 110.024 199.018 109.527 203.487 109.37C209.122 109.172 211.448 108.916 217.062 108.388C220.77 108.04 226.549 107.898 226.549 107.898C226.549 107.898 221.333 110.894 218.044 112.641C212.177 115.756 208.474 116.628 202.342 119.183L178.789 128.997C178.789 128.997 182.569 124.784 185.332 122.454C188.42 119.85 193.837 116.566 193.837 116.566C193.837 116.566 169.688 122.611 157.199 131.778C147.472 138.917 142.221 143.95 136.1 154.349C131.943 161.412 128.249 173.812 128.249 173.812C128.249 173.812 126.123 157.129 138.717 136.684C145.799 125.188 153.383 121.075 165.05 114.276C177.565 106.984 185.716 104.076 200.052 102.01Z" fill="#FEFAFC"/>
<path d="M129.083 72.1554C144.175 62.0924 161.784 58.7438 169.331 59.5812C156.216 63.952 152.322 64.4922 142.41 69.8035C130.623 76.1192 123.781 80.2681 115.059 90.4024C110.838 95.3062 108.918 97.8914 105.604 104.006C98.9804 116.224 99.6458 124.963 96.3807 137.541C96.3061 135.022 93.7766 124.125 100.573 106.525C106.767 90.2242 114.514 81.7427 129.083 72.1554Z" fill="#EDB159"/>
<path d="M127.435 102.282C118.983 112.331 109.686 136.617 109.686 136.617C109.686 136.617 109.692 130.755 113.072 121.543C115.459 114.623 117.319 110.804 121.525 104.795C125.915 98.5202 128.445 94.4935 135.048 90.5582C136.945 89.4274 140.119 88.0459 140.119 88.0459C140.119 88.0459 133.352 94.7454 127.435 102.282Z" fill="#EDB159"/>
<path d="M134.241 109.897L127.377 114.179C127.377 114.179 125.52 116.792 122.753 122.786C125.981 119.866 132.449 114.64 132.449 114.64C132.449 114.64 127.684 119.559 124.149 125.707C120.681 131.484 119.22 135.197 117.535 141.726C115.568 149.352 115.374 158.446 115.375 161.828C116.45 155.218 120.041 146.751 120.041 146.751C120.041 146.751 124.621 130.19 130.064 120.786C134.158 113.714 142.594 104.034 142.594 104.034L134.241 109.897Z" fill="#EDB159"/>
<path d="M128.292 173.816L131.98 163.364C133.28 140.825 150.919 123.381 169.638 113.409C169.638 113.409 165.053 114.673 162.261 115.868C158.263 118.328 152.573 121.091 147.505 125.859C141.848 131.182 139.311 134.984 135.669 141.845C132.324 148.147 130.442 154.449 129.214 159.828C127.523 169.666 128.292 173.816 128.292 173.816Z" fill="#EDB159"/>
<path d="M239.634 88.9255C235.318 91.1472 239.634 101.356 239.634 101.356C239.634 101.356 235.868 97.5549 234.563 94.4865C233.075 90.9868 232.228 88.4983 233.255 84.8365C234.308 81.0803 235.94 78.4034 239.634 77.1491C243.288 75.9084 245.982 77.278 249.284 79.2754C252.461 81.1975 253.924 83.1091 255.499 86.4721C257.169 90.0388 256.971 96.4492 256.971 96.4492C256.971 96.4492 257.623 105.729 256.481 111.497C255.699 115.44 253.373 121.31 253.373 121.31C253.373 121.31 254.758 111.551 253.7 105.445C252.612 99.1688 253.418 93.258 247.812 90.2339C244.965 88.6985 242.51 87.4452 239.634 88.9255Z" fill="#FEFAFC"/>
<path d="M248.629 90.0707C249.841 89.1635 250.55 88.2349 252.064 88.2716C255.012 88.343 255.357 92.6947 254.353 95.4682C253.419 98.0517 251.362 99.281 248.629 99.5572C245.73 99.8502 242.503 99.1415 241.923 96.286C241.545 94.4249 241.697 92.0848 243.558 91.7063C244.608 91.4929 245.12 92.7058 246.175 92.5241C247.511 92.2943 247.544 90.8825 248.629 90.0707Z" fill="#1A131A"/>
<path d="M142.156 44.1095C138.595 39.3531 141.829 28.8984 141.829 28.8984C141.829 28.8984 144.209 36.9153 147.717 40.6748C152.376 45.6687 163.582 48.035 163.582 48.035C163.582 48.035 158.348 50.4884 152.296 49.3435C146.245 48.1985 144.826 47.6771 142.156 44.1095Z" fill="#1A131A"/>
<path d="M174.536 76.0031C172.085 74.1924 170.283 69.4607 170.283 69.4607L177.97 67.1709L186.639 68.4794L190.564 75.0218C190.564 75.0218 185.698 78.0404 182.223 78.1294C179.109 78.2092 177.041 77.854 174.536 76.0031Z" fill="#FEFAFC"/>
<path d="M179.936 74.6965C178.349 73.2573 177.483 69.7897 177.483 69.7897C177.483 69.7897 173.901 70.3604 171.595 70.2804C168.202 70.1627 163.09 68.4812 163.09 68.4812C163.09 68.4812 170.739 64.7168 176.011 64.5558C180.568 64.4166 183.341 64.8892 187.46 66.8456C191.96 68.9829 192.681 72.9065 197.11 75.1872C197.923 75.6059 199.236 76.1686 199.236 76.1686C199.236 76.1686 190.499 78.0073 185.17 76.6593C183.054 76.1239 181.553 76.1631 179.936 74.6965Z" fill="#1A131A"/>
<circle cx="1.79916" cy="1.79916" r="1.79916" transform="matrix(-1 0 0 1 183.857 69.1357)" fill="#FEFAFC"/>
</g>
<path d="M24.9552 338.392C18.4714 338.392 13.3343 336.597 9.54383 333.006C5.75334 329.365 3.85809 324.178 3.85809 317.445V304.876C3.85809 298.143 5.75334 292.981 9.54383 289.39C13.3343 285.749 18.4714 283.929 24.9552 283.929C31.389 283.929 36.3516 285.699 39.8428 289.24C43.3839 292.732 45.1545 297.545 45.1545 303.679V304.128H35.4289V303.38C35.4289 300.288 34.5561 297.744 32.8105 295.749C31.1147 293.754 28.4963 292.757 24.9552 292.757C21.4639 292.757 18.7208 293.829 16.7258 295.974C14.7308 298.118 13.7333 301.036 13.7333 304.727V317.594C13.7333 321.235 14.7308 324.153 16.7258 326.347C18.7208 328.492 21.4639 329.564 24.9552 329.564C28.4963 329.564 31.1147 328.567 32.8105 326.572C34.5561 324.527 35.4289 321.983 35.4289 318.941V317.594H45.1545V318.642C45.1545 324.776 43.3839 329.614 39.8428 333.155C36.3516 336.646 31.389 338.392 24.9552 338.392ZM49.0255 337.345L62.7909 284.976H79.9978L93.7632 337.345H83.5888L80.7459 325.824H62.0428L59.1999 337.345H49.0255ZM64.362 316.697H78.4267L72.0677 291.186H70.721L64.362 316.697ZM100.032 337.345V284.976H121.578C124.869 284.976 127.762 285.649 130.256 286.996C132.799 288.293 134.77 290.138 136.166 292.532C137.612 294.926 138.336 297.769 138.336 301.061V302.108C138.336 305.35 137.587 308.193 136.091 310.637C134.645 313.031 132.65 314.901 130.106 316.248C127.612 317.544 124.77 318.193 121.578 318.193H109.907V337.345H100.032ZM109.907 309.215H120.605C122.949 309.215 124.844 308.567 126.291 307.27C127.737 305.973 128.46 304.203 128.46 301.958V301.21C128.46 298.966 127.737 297.195 126.291 295.899C124.844 294.602 122.949 293.954 120.605 293.954H109.907V309.215ZM145.182 337.345V284.976H155.057V337.345H145.182ZM174.634 337.345L161.317 284.976H171.491L182.564 330.986H183.611L194.683 284.976H204.858L191.541 337.345H174.634ZM204.13 337.345L217.895 284.976H235.102L248.867 337.345H238.693L235.85 325.824H217.147L214.304 337.345H204.13ZM219.466 316.697H233.531L227.172 291.186H225.825L219.466 316.697ZM255.136 337.345V284.976H277.879C281.17 284.976 284.038 285.55 286.482 286.697C288.926 287.844 290.821 289.465 292.168 291.56C293.514 293.654 294.188 296.123 294.188 298.966V299.864C294.188 303.006 293.44 305.549 291.943 307.495C290.447 309.44 288.602 310.861 286.407 311.759V313.106C288.402 313.205 289.948 313.904 291.046 315.2C292.143 316.447 292.692 318.118 292.692 320.213V337.345H282.816V321.634C282.816 320.437 282.492 319.465 281.844 318.716C281.245 317.968 280.223 317.594 278.776 317.594H265.011V337.345H255.136ZM265.011 308.617H276.831C279.175 308.617 280.996 307.993 282.293 306.746C283.639 305.45 284.313 303.754 284.313 301.659V300.911C284.313 298.816 283.664 297.146 282.367 295.899C281.071 294.602 279.225 293.954 276.831 293.954H265.011V308.617ZM298.814 337.345L312.579 284.976H329.786L343.552 337.345H333.377L330.534 325.824H311.831L308.988 337.345H298.814ZM314.15 316.697H328.215L321.856 291.186H320.509L314.15 316.697ZM100.375 432.345V384.315H82.8693V379.976H122.669V384.315H105.163V432.345H100.375ZM131.19 432.345V379.976H162.835V384.315H135.978V403.916H160.741V408.255H135.978V428.006H163.135V432.345H131.19ZM192.191 433.392C186.056 433.392 181.143 431.597 177.453 428.006C173.812 424.365 171.991 419.053 171.991 412.071V400.25C171.991 393.268 173.812 387.981 177.453 384.39C181.143 380.749 186.056 378.929 192.191 378.929C198.275 378.929 202.914 380.649 206.106 384.091C209.347 387.482 210.968 392.121 210.968 398.006V398.38H206.18V397.856C206.18 393.567 205.033 390.076 202.739 387.383C200.495 384.639 196.979 383.268 192.191 383.268C187.353 383.268 183.562 384.739 180.819 387.682C178.126 390.624 176.779 394.764 176.779 400.101V412.22C176.779 417.557 178.126 421.696 180.819 424.639C183.562 427.582 187.353 429.053 192.191 429.053C196.979 429.053 200.495 427.706 202.739 425.013C205.033 422.27 206.18 418.754 206.18 414.465V413.342H210.968V414.315C210.968 420.2 209.347 424.863 206.106 428.305C202.914 431.696 198.275 433.392 192.191 433.392ZM221.564 432.345V379.976H226.352V403.916H252.985V379.976H257.773V432.345H252.985V408.255H226.352V432.345H221.564Z" fill="#1A131A"/>
<defs>
<filter id="filter0_d_174_30" x="66.2508" y="0.135742" width="211.038" height="251.337" filterUnits="userSpaceOnUse" color-interpolation-filters="sRGB">
<feFlood flood-opacity="0" result="BackgroundImageFix"/>
<feColorMatrix in="SourceAlpha" type="matrix" values="0 0 0 0 0 0 0 0 0 0 0 0 0 0 0 0 0 0 127 0" result="hardAlpha"/>
<feOffset dy="4.24924"/>
<feGaussianBlur stdDeviation="2.12462"/>
<feComposite in2="hardAlpha" operator="out"/>
<feColorMatrix type="matrix" values="0 0 0 0 0 0 0 0 0 0 0 0 0 0 0 0 0 0 0.25 0"/>
<feBlend mode="normal" in2="BackgroundImageFix" result="effect1_dropShadow_174_30"/>
<feBlend mode="normal" in="SourceGraphic" in2="effect1_dropShadow_174_30" result="shape"/>
</filter>
</defs>
</svg>
