<?xml version="1.0" encoding="UTF-8"?>
<svg id="CMYK_Logos" xmlns="http://www.w3.org/2000/svg" version="1.1" viewBox="0 0 2000 385.5">
  <!-- Generator: Adobe Illustrator 29.5.1, SVG Export Plug-In . SVG Version: 2.1.0 Build 141)  -->
  <defs>
    <style>
      .st0 {
        fill: #ea4335;
      }

      .st0, .st1, .st2, .st3 {
        stroke: #202124;
        stroke-miterlimit: 10;
        stroke-width: 6.9px;
      }

      .st4 {
        fill: #202124;
      }

      .st1 {
        fill: #fbbc04;
      }

      .st2 {
        fill: #4285f4;
      }

      .st3 {
        fill: #34a853;
      }
    </style>
  </defs>
  <g>
    <path class="st4" d="M537.7,231.9c-7-4-12.5-9.6-16.6-16.6-4.1-7.1-6.2-14.9-6.2-23.4s2.1-16.3,6.2-23.4c4.1-7.1,9.6-12.6,16.6-16.6,7-4,14.6-6,22.9-6s12.6,1.2,18.3,3.5c5.7,2.3,10.4,5.5,14.1,9.7l-7.4,7.5c-2.9-3.4-6.5-6.1-10.8-7.9-4.4-1.8-9-2.8-14-2.8s-11.9,1.5-17.4,4.5c-5.4,3-9.8,7.2-13,12.7-3.2,5.5-4.9,11.8-4.9,18.9s1.6,13.4,4.9,18.9c3.2,5.5,7.6,9.7,13,12.7,5.4,3,11.2,4.5,17.4,4.5s10.9-.9,14.8-2.8c4-1.8,7.4-4.3,10.3-7.3,2.1-2.3,3.9-5.1,5.2-8.3,1.3-3.2,2.1-6.8,2.5-10.8h-32.6v-9.7h42.4c.4,2.3.6,4.4.6,6.4,0,5.4-.9,10.7-2.6,15.8-1.7,5.1-4.5,9.6-8.3,13.5-8.1,8.8-18.9,13.2-32.4,13.2s-15.9-2-22.9-6Z"/>
    <path class="st4" d="M626.5,233.5c-4.9-3-8.8-7-11.5-12.1-2.8-5.1-4.1-10.7-4.1-16.9s1.4-11.8,4.1-16.9c2.8-5.1,6.6-9.1,11.5-12.1,4.9-3,10.5-4.4,16.6-4.4s11.7,1.5,16.6,4.4c4.9,3,8.8,7,11.5,12.1,2.8,5.1,4.1,10.7,4.1,16.9s-1.4,11.8-4.1,16.9c-2.8,5.1-6.6,9.1-11.5,12.1-4.9,3-10.5,4.4-16.6,4.4s-11.7-1.5-16.6-4.4ZM653.9,225.6c3.3-1.9,6-4.7,8-8.3,2-3.6,3-7.8,3-12.7s-1-9.1-3-12.7c-2-3.6-4.7-6.4-8-8.3-3.3-1.9-6.9-2.9-10.8-2.9s-7.5,1-10.8,2.9c-3.4,1.9-6.1,4.7-8.1,8.3-2,3.6-3,7.8-3,12.7s1,9.1,3,12.7c2,3.6,4.7,6.4,8.1,8.3,3.4,1.9,7,2.9,10.8,2.9s7.5-1,10.8-2.9Z"/>
    <path class="st4" d="M696.5,233.5c-4.9-3-8.8-7-11.5-12.1-2.8-5.1-4.1-10.7-4.1-16.9s1.4-11.8,4.1-16.9c2.8-5.1,6.6-9.1,11.5-12.1,4.9-3,10.5-4.4,16.6-4.4s11.7,1.5,16.6,4.4c4.9,3,8.8,7,11.5,12.1,2.8,5.1,4.1,10.7,4.1,16.9s-1.4,11.8-4.1,16.9c-2.8,5.1-6.6,9.1-11.5,12.1-4.9,3-10.5,4.4-16.6,4.4s-11.7-1.5-16.6-4.4ZM723.9,225.6c3.3-1.9,6-4.7,8-8.3,2-3.6,3-7.8,3-12.7s-1-9.1-3-12.7c-2-3.6-4.7-6.4-8-8.3-3.3-1.9-6.9-2.9-10.8-2.9s-7.5,1-10.8,2.9c-3.4,1.9-6.1,4.7-8.1,8.3-2,3.6-3,7.8-3,12.7s1,9.1,3,12.7c2,3.6,4.7,6.4,8.1,8.3,3.4,1.9,7,2.9,10.8,2.9s7.5-1,10.8-2.9Z"/>
    <path class="st4" d="M763.5,259.4c-4.8-3.4-8-7.6-9.7-12.4l9.6-4.1c1.3,3.6,3.6,6.5,6.8,8.8,3.2,2.3,7.1,3.4,11.5,3.4,6.5,0,11.5-1.8,15.1-5.4,3.6-3.6,5.4-8.8,5.4-15.5v-7h-.5c-2.1,3.2-4.9,5.8-8.7,7.8-3.7,2-8,3-12.7,3s-10.4-1.4-14.8-4.2c-4.5-2.8-8-6.8-10.7-11.8-2.6-5.1-3.9-10.8-3.9-17.3s1.3-12.1,3.9-17.3c2.6-5.1,6.2-9.1,10.7-11.9,4.5-2.8,9.4-4.2,14.8-4.2s9,1,12.7,3c3.7,2,6.6,4.7,8.7,7.9h.5v-9h10v60.4c0,10.1-2.8,17.8-8.4,23.1-5.6,5.3-12.9,7.9-22.1,7.9s-13.5-1.7-18.3-5.2ZM792.1,225.6c3.1-1.9,5.5-4.7,7.4-8.3,1.8-3.6,2.8-7.8,2.8-12.8s-.9-9.3-2.8-12.9c-1.8-3.6-4.3-6.3-7.4-8.2-3.1-1.9-6.5-2.8-10.3-2.8s-7.2,1-10.3,2.9c-3.1,1.9-5.6,4.7-7.5,8.3-1.8,3.6-2.8,7.8-2.8,12.8s.9,9.2,2.8,12.8c1.8,3.6,4.3,6.4,7.5,8.3s6.6,2.8,10.3,2.8,7.2-1,10.3-2.9Z"/>
    <path class="st4" d="M824.4,147.8h10.5v88.2h-10.5v-88.2Z"/>
    <path class="st4" d="M859,233.6c-4.8-2.9-8.5-6.8-11.1-11.9-2.7-5.1-4-10.7-4-17.1s1.3-11.6,3.8-16.7c2.5-5.1,6.1-9.2,10.7-12.3,4.6-3,10-4.6,16-4.6s11.5,1.4,16,4.1c4.5,2.8,8,6.5,10.4,11.4,2.4,4.8,3.6,10.4,3.6,16.6s0,2.1-.2,3.2h-49.8c.2,4.8,1.4,8.8,3.5,12.1,2.1,3.3,4.7,5.7,7.8,7.4,3.2,1.6,6.5,2.5,9.9,2.5,8.2,0,14.4-3.8,18.6-11.3l8.9,4.3c-2.6,5-6.3,9-11,12-4.7,3-10.3,4.5-16.9,4.5s-11.4-1.4-16.1-4.3ZM893.2,197.9c-.2-2.6-.9-5.3-2.2-7.9-1.3-2.6-3.4-4.8-6.2-6.7-2.8-1.8-6.3-2.7-10.6-2.7s-9.1,1.6-12.6,4.7c-3.4,3.2-5.7,7.3-6.8,12.5h38.3Z"/>
    <path class="st4" d="M944.7,147.8h26.6c9,0,16.9,1.9,23.7,5.6,6.7,3.7,11.9,8.9,15.5,15.6,3.6,6.7,5.4,14.3,5.4,22.9s-1.8,16.3-5.4,22.9c-3.6,6.7-8.8,11.8-15.5,15.6-6.7,3.7-14.6,5.6-23.7,5.6h-26.6v-88.2ZM971.3,226c10.4,0,18.7-3,24.8-9,6.1-6,9.2-14.4,9.2-25.1s-3.1-19.1-9.2-25.1c-6.1-6-14.4-9-24.8-9h-16.1v68.2h16.1Z"/>
    <path class="st4" d="M1038,233.6c-4.8-2.9-8.5-6.8-11.1-11.9-2.7-5.1-4-10.7-4-17.1s1.3-11.6,3.8-16.7c2.5-5.1,6.1-9.2,10.7-12.3,4.6-3,10-4.6,16-4.6s11.5,1.4,16,4.1c4.5,2.8,8,6.5,10.4,11.4,2.4,4.8,3.6,10.4,3.6,16.6s0,2.1-.2,3.2h-49.8c.2,4.8,1.4,8.8,3.5,12.1,2.1,3.3,4.7,5.7,7.8,7.4,3.2,1.6,6.5,2.5,9.9,2.5,8.2,0,14.4-3.8,18.6-11.3l8.9,4.3c-2.6,5-6.3,9-11,12-4.7,3-10.3,4.5-16.9,4.5s-11.4-1.4-16.1-4.3ZM1072.2,197.9c-.2-2.6-.9-5.3-2.2-7.9-1.3-2.6-3.4-4.8-6.2-6.7-2.8-1.8-6.3-2.7-10.6-2.7s-9.1,1.6-12.6,4.7c-3.4,3.2-5.7,7.3-6.8,12.5h38.3Z"/>
    <path class="st4" d="M1082.9,173.1h11.2l19.5,50.5h.2l19.7-50.5h11l-25.6,62.8h-10.6l-25.4-62.8Z"/>
    <path class="st4" d="M1158.8,233.6c-4.8-2.9-8.5-6.8-11.1-11.9-2.7-5.1-4-10.7-4-17.1s1.3-11.6,3.8-16.7c2.5-5.1,6.1-9.2,10.7-12.3,4.6-3,10-4.6,16-4.6s11.5,1.4,16,4.1c4.5,2.8,8,6.5,10.4,11.4,2.4,4.8,3.6,10.4,3.6,16.6s0,2.1-.2,3.2h-49.8c.2,4.8,1.4,8.8,3.4,12.1,2.1,3.3,4.7,5.7,7.8,7.4,3.2,1.6,6.5,2.5,9.9,2.5,8.2,0,14.4-3.8,18.6-11.3l8.9,4.3c-2.6,5-6.3,9-11,12-4.7,3-10.3,4.5-16.9,4.5s-11.4-1.4-16.1-4.3ZM1193.1,197.9c-.2-2.6-.9-5.3-2.2-7.9-1.3-2.6-3.4-4.8-6.2-6.7-2.8-1.8-6.3-2.7-10.6-2.7s-9.1,1.6-12.6,4.7c-3.5,3.2-5.7,7.3-6.8,12.5h38.3Z"/>
    <path class="st4" d="M1213.2,147.8h10.5v88.2h-10.5v-88.2Z"/>
    <path class="st4" d="M1248.3,233.5c-4.9-3-8.8-7-11.5-12.1-2.8-5.1-4.1-10.7-4.1-16.9s1.4-11.8,4.1-16.9c2.8-5.1,6.6-9.1,11.5-12.1,4.9-3,10.5-4.4,16.6-4.4s11.7,1.5,16.6,4.4c4.9,3,8.8,7,11.5,12.1,2.8,5.1,4.1,10.7,4.1,16.9s-1.4,11.8-4.1,16.9c-2.8,5.1-6.6,9.1-11.5,12.1-4.9,3-10.5,4.4-16.6,4.4s-11.7-1.5-16.6-4.4ZM1275.7,225.6c3.3-1.9,6-4.7,8-8.3,2-3.6,3-7.8,3-12.7s-1-9.1-3-12.7c-2-3.6-4.7-6.4-8-8.3-3.3-1.9-6.9-2.9-10.8-2.9s-7.5,1-10.8,2.9c-3.4,1.9-6.1,4.7-8.1,8.3-2,3.6-3,7.8-3,12.7s1,9.1,3,12.7c2,3.6,4.7,6.4,8.1,8.3,3.4,1.9,7,2.9,10.8,2.9s7.5-1,10.8-2.9Z"/>
    <path class="st4" d="M1305.8,173.1h10v9.4h.5c1.9-3.2,4.7-5.9,8.6-8.1,3.8-2.2,8.1-3.3,12.9-3.3s10.8,1.4,15.3,4.3c4.6,2.9,8.2,6.9,10.8,11.9,2.6,5.1,3.9,10.8,3.9,17.1s-1.3,12.1-3.9,17.2c-2.6,5-6.2,9-10.8,11.9-4.6,2.9-9.7,4.3-15.3,4.3s-9.1-1.1-12.9-3.3c-3.8-2.2-6.7-4.8-8.6-7.9h-.5l.5,8.6v27.2h-10.5v-89.4ZM1346.8,225.5c3.2-2,5.7-4.8,7.6-8.4,1.9-3.6,2.8-7.8,2.8-12.6s-.9-9-2.8-12.6c-1.9-3.6-4.4-6.4-7.6-8.4-3.2-2-6.6-3-10.2-3s-7.1,1-10.3,3c-3.2,2-5.7,4.8-7.6,8.4-1.9,3.6-2.9,7.8-2.9,12.6s1,9,2.9,12.6c1.9,3.6,4.5,6.4,7.6,8.4,3.2,2,6.6,3,10.3,3s7-1,10.2-3Z"/>
    <path class="st4" d="M1388.5,233.6c-4.8-2.9-8.5-6.8-11.1-11.9-2.7-5.1-4-10.7-4-17.1s1.3-11.6,3.8-16.7c2.5-5.1,6.1-9.2,10.7-12.3,4.6-3,10-4.6,16-4.6s11.5,1.4,16,4.1c4.5,2.8,8,6.5,10.4,11.4,2.4,4.8,3.6,10.4,3.6,16.6s0,2.1-.2,3.2h-49.8c.2,4.8,1.4,8.8,3.4,12.1,2.1,3.3,4.7,5.7,7.8,7.4,3.2,1.6,6.5,2.5,9.9,2.5,8.2,0,14.4-3.8,18.6-11.3l8.9,4.3c-2.6,5-6.3,9-11,12-4.7,3-10.3,4.5-16.9,4.5s-11.4-1.4-16.1-4.3ZM1422.7,197.9c-.2-2.6-.9-5.3-2.2-7.9-1.3-2.6-3.4-4.8-6.2-6.7-2.8-1.8-6.3-2.7-10.6-2.7s-9.1,1.6-12.6,4.7c-3.5,3.2-5.7,7.3-6.8,12.5h38.3Z"/>
    <path class="st4" d="M1442.6,173.1h10v10.1h.5c1.2-3.5,3.6-6.3,7.1-8.6,3.5-2.3,7.2-3.4,11.1-3.4s5.3.5,7.4,1.4v11.2c-2.6-1.3-5.6-2-8.9-2s-5.8.9-8.4,2.6c-2.5,1.7-4.6,4.1-6.1,7-1.5,2.9-2.3,6.1-2.3,9.4v35.2h-10.5v-62.8Z"/>
    <path class="st4" d="M1517,147.8h51v10h-40.5v29.2h36.6v9.9h-36.6v29.2h40.5v10h-51v-88.2Z"/>
    <path class="st4" d="M1596.1,204.1l-21.7-30.9h11.8l16.1,23.3,15.6-23.3h12.3l-22,30.9,22.4,31.9h-12.2l-16.3-24.1-16.1,24.1h-12.2l22.2-31.9Z"/>
    <path class="st4" d="M1636.3,173.1h10v9.4h.5c1.9-3.2,4.7-5.9,8.6-8.1,3.8-2.2,8.1-3.3,12.9-3.3s10.8,1.4,15.3,4.3c4.6,2.9,8.1,6.9,10.8,11.9,2.6,5.1,3.9,10.8,3.9,17.1s-1.3,12.1-3.9,17.2c-2.6,5-6.2,9-10.8,11.9-4.6,2.9-9.7,4.3-15.3,4.3s-9.1-1.1-12.9-3.3c-3.8-2.2-6.7-4.8-8.6-7.9h-.5l.5,8.6v27.2h-10.5v-89.4ZM1677.3,225.5c3.2-2,5.7-4.8,7.6-8.4,1.9-3.6,2.8-7.8,2.8-12.6s-.9-9-2.8-12.6c-1.9-3.6-4.4-6.4-7.6-8.4-3.2-2-6.6-3-10.2-3s-7.1,1-10.3,3c-3.2,2-5.7,4.8-7.6,8.4-1.9,3.6-2.9,7.8-2.9,12.6s1,9,2.9,12.6c1.9,3.6,4.5,6.4,7.6,8.4,3.2,2,6.6,3,10.3,3s7-1,10.2-3Z"/>
    <path class="st4" d="M1719,233.6c-4.8-2.9-8.5-6.8-11.1-11.9-2.7-5.1-4-10.7-4-17.1s1.3-11.6,3.8-16.7c2.5-5.1,6.1-9.2,10.7-12.3,4.6-3,10-4.6,16-4.6s11.5,1.4,16,4.1c4.5,2.8,8,6.5,10.4,11.4,2.4,4.8,3.6,10.4,3.6,16.6s0,2.1-.2,3.2h-49.8c.2,4.8,1.4,8.8,3.4,12.1,2.1,3.3,4.7,5.7,7.8,7.4,3.2,1.6,6.5,2.5,9.9,2.5,8.2,0,14.4-3.8,18.6-11.3l8.9,4.3c-2.6,5-6.3,9-11,12-4.7,3-10.3,4.5-16.9,4.5s-11.4-1.4-16.1-4.3ZM1753.3,197.9c-.2-2.6-.9-5.3-2.2-7.9-1.3-2.6-3.4-4.8-6.2-6.7-2.8-1.8-6.3-2.7-10.6-2.7s-9.1,1.6-12.6,4.7c-3.5,3.2-5.7,7.3-6.8,12.5h38.3Z"/>
    <path class="st4" d="M1773.6,173.1h10v10h.5c1.5-3.7,4-6.3,7.5-7.8,3.5-1.5,7.4-2.2,11.7-2.2s3.2.1,4.4.4v10.7c-1.4-.3-3.3-.5-5.7-.5-5.3,0-9.7,1.7-13,5.1-3.3,3.4-5,7.9-5,13.4v33.7h-10.5v-62.8ZM1837.4,235.7c-2.2-.8-4-1.9-5.5-3.3-3.3-3.1-4.9-7.4-4.9-12.9v-36.8h-11v-9.5h11v-17.7h10.5v17.7h15.4v9.5h-15.4v34.2c0,3.4.7,6,2,7.6,1.6,1.8,3.8,2.7,6.8,2.7s4.8-.7,6.9-2.1v10.2c-1.2.6-2.5,1-3.8,1.2-1.3.2-2.9.4-4.9.4s-4.9-.4-7.1-1.2Z"/>
    <path class="st4" d="M1867.6,233.2c-4.5-3.2-7.7-7.2-9.6-12.1l9.4-4.2c1.6,3.8,3.9,6.7,7,8.7,3.1,2.1,6.5,3.1,10.2,3.1s7.3-.8,10.1-2.4c2.8-1.6,4.2-3.9,4.2-6.8s-1.1-4.7-3.3-6.3c-2.2-1.6-5.7-3-10.5-4.1l-7.6-2c-5-1.2-9.1-3.3-12.3-6.3-3.2-3-4.8-6.8-4.8-11.5s1.1-6.8,3.3-9.5c2.2-2.8,5.1-4.9,8.7-6.3,3.6-1.5,7.5-2.2,11.7-2.2s10.4,1.2,14.7,3.6c4.3,2.4,7.4,5.7,9.2,10l-9.1,4.2c-2.8-5.6-7.8-8.4-14.9-8.4s-6.5.8-9.1,2.4c-2.6,1.6-3.9,3.6-3.9,6.1s.9,4.2,2.7,5.6c1.8,1.4,4.5,2.6,8.1,3.5l9.1,2.3c6.2,1.6,10.8,3.9,13.9,7,3.1,3.1,4.7,6.8,4.7,11.3s-1.1,7.2-3.3,10.2c-2.2,2.9-5.2,5.2-9,6.7-3.8,1.6-8,2.3-12.6,2.3-6.7,0-12.4-1.6-16.9-4.7Z"/>
  </g>
  <g>
    <rect class="st0" x="81.2" y="125" width="177.5" height="76.6" rx="38.3" ry="38.3" transform="translate(-63.4 129.9) rotate(-35.7)"/>
    <rect class="st2" x="131.6" y="133.4" width="76.6" height="177.5" rx="38.3" ry="38.3" transform="translate(-109.7 230.5) rotate(-54.3)"/>
    <rect class="st1" x="279" y="183.9" width="177.5" height="76.6" rx="38.3" ry="38.3" transform="translate(-60.5 256.4) rotate(-35.7)"/>
    <rect class="st3" x="329.4" y="74.6" width="76.6" height="177.5" rx="38.3" ry="38.3" transform="translate(20.5 366.6) rotate(-54.3)"/>
  </g>
</svg>