<?xml version="1.0" encoding="UTF-8" standalone="no"?>
<!-- Created with Inkscape (http://www.inkscape.org/) -->

<svg
   width="141.41978mm"
   height="35.374786mm"
   viewBox="0 0 141.41978 35.374786"
   version="1.1"
   id="svg1"
   xmlns="http://www.w3.org/2000/svg"
   xmlns:svg="http://www.w3.org/2000/svg">
  <defs
     id="defs1" />
  <g
     id="layer1"
     transform="translate(-11.377083,-64.293753)">
    <g
       id="g322"
       transform="matrix(0.26458333,0,0,0.26458333,-6.5087497,320.59562)">
	<path
   id="circle294"
   class="st2"
   style="fill:#ffffff"
   d="m 141.9,-901.90002 a 15.9,15.9 0 0 1 -15.9,15.9 15.9,15.9 0 0 1 -15.9,-15.9 15.9,15.9 0 0 1 15.9,-15.9 15.9,15.9 0 0 1 15.9,15.9 z" />

	<g
   id="g305">
		<path
   id="circle295"
   class="st2"
   style="fill:#ffffff"
   d="m 132.9,-961.79999 a 6.9000001,6.9000001 0 0 1 -6.9,6.9 6.9000001,6.9000001 0 0 1 -6.9,-6.9 6.9000001,6.9000001 0 0 1 6.9,-6.9 6.9000001,6.9000001 0 0 1 6.9,6.9 z" />

		<path
   id="circle296"
   class="st2"
   style="fill:#ffffff"
   d="m 132.9,-841.90002 a 6.9000001,6.9000001 0 0 1 -6.9,6.9 6.9000001,6.9000001 0 0 1 -6.9,-6.9 6.9000001,6.9000001 0 0 1 6.9,-6.9 6.9000001,6.9000001 0 0 1 6.9,6.9 z" />

		<path
   id="circle297"
   class="st2"
   style="fill:#ffffff"
   d="m 184.4,-932.40002 a 6.9000001,6.9000001 0 0 1 -6.9,6.9 6.9000001,6.9000001 0 0 1 -6.9,-6.9 6.9000001,6.9000001 0 0 1 6.9,-6.9 6.9000001,6.9000001 0 0 1 6.9,6.9 z" />

		<path
   id="circle298"
   class="st2"
   style="fill:#ffffff"
   d="m 81.4,-871.29999 a 6.9000001,6.9000001 0 0 1 -6.9,6.9 6.9000001,6.9000001 0 0 1 -6.9,-6.9 6.9000001,6.9000001 0 0 1 6.9,-6.9 6.9000001,6.9000001 0 0 1 6.9,6.9 z" />

		<path
   id="circle299"
   class="st2"
   style="fill:#ffffff"
   d="m 184.4,-871.29999 a 6.9000001,6.9000001 0 0 1 -6.9,6.9 6.9000001,6.9000001 0 0 1 -6.9,-6.9 6.9000001,6.9000001 0 0 1 6.9,-6.9 6.9000001,6.9000001 0 0 1 6.9,6.9 z" />

		<path
   id="circle300"
   class="st2"
   style="fill:#ffffff"
   d="m 81.4,-932.40002 a 6.9000001,6.9000001 0 0 1 -6.9,6.9 6.9000001,6.9000001 0 0 1 -6.9,-6.9 6.9000001,6.9000001 0 0 1 6.9,-6.9 6.9000001,6.9000001 0 0 1 6.9,6.9 z" />

		<path
   id="rect300"
   class="st2"
   style="fill:#ffffff"
   d="m 124.6,-961.79999 h 2.8 v 29.4 h -2.8 z" />

		<path
   id="rect301"
   class="st2"
   style="fill:#ffffff"
   d="m 124.6,-871.29999 h 2.8 v 29.4 h -2.8 z" />

		
			<path
   id="rect302"
   class="st2"
   transform="matrix(0.5174,-0.8557,0.8557,0.5174,833.9037,-371.8219)"
   style="fill:#ffffff"
   d="m 85.900002,-940 h 2.799999 v 29.4 h -2.799999 z" />

		
			<path
   id="rect303"
   class="st2"
   transform="matrix(0.5174,-0.8557,0.8557,0.5174,831.2057,-282.9814)"
   style="fill:#ffffff"
   d="m 163.3,-893.09998 h 2.8 v 29.4 h -2.8 z" />

		
			<path
   id="rect304"
   class="st2"
   transform="matrix(0.8634,-0.5046,0.5046,0.8634,455.4412,-76.2457)"
   style="fill:#ffffff"
   d="M 72.300003,-880.40002 H 101.7 v 2.8 H 72.300003 Z" />

		
			<path
   id="rect305"
   class="st2"
   transform="matrix(0.8634,-0.5046,0.5046,0.8634,489.1544,-43.0742)"
   style="fill:#ffffff"
   d="m 150.39999,-926.09998 h 29.4 v 2.8 h -29.4 z" />

	</g>

	<g
   id="g315">
		<g
   id="g314">
			<path
   class="st2"
   d="m 236.9,-851.8 c 0,2.4 0.6,4.2 1.7,5.4 1.1,1.2 2.9,1.9 5.3,1.9 2.4,0 4.2,-0.6 5.3,-1.7 1.2,-1.1 1.8,-3.2 1.8,-6.1 v -22 h 3.3 v 22.9 c 0,3 -0.9,5.3 -2.7,7.1 -1.8,1.8 -4.4,2.6 -7.9,2.6 -2.3,0 -4.2,-0.4 -5.6,-1.1 -1.4,-0.7 -2.4,-1.7 -3.1,-2.8 -0.6,-1.1 -1,-2.3 -1.2,-3.4 -0.2,-1.1 -0.3,-2.4 -0.3,-3.9 v 0 h 3.3 v 1.1 z"
   id="path305"
   style="fill:#ffffff" />

			<path
   class="st2"
   d="m 279.6,-847.1 v 0 c -0.6,1.4 -1.8,2.6 -3.5,3.7 -1.7,1.1 -3.8,1.6 -6.2,1.6 -1.9,0 -3.5,-0.2 -4.8,-0.7 -1.3,-0.5 -2.3,-1.1 -3.1,-2 -0.8,-0.8 -1.3,-1.8 -1.7,-3 -0.3,-1.1 -0.5,-2.4 -0.5,-3.9 v -14.4 h 3.3 v 14.9 c 0,2.2 0.6,3.8 1.8,4.8 1.2,1 2.9,1.5 5.2,1.5 3.2,0 5.5,-0.8 7.1,-2.3 1.6,-1.5 2.3,-3.6 2.3,-6.3 v -12.6 h 3.3 v 23.2 h -3.3 v -4.5 z"
   id="path306"
   style="fill:#ffffff" />

			<path
   class="st2"
   d="m 287.9,-874.6 h 3.3 v 4.9 h -3.3 z m 0,8.9 h 3.3 v 23.2 h -3.3 z"
   id="path307"
   style="fill:#ffffff" />

			<path
   class="st2"
   d="m 294.5,-845.3 17.6,-17.7 h -16.6 v -2.8 h 21.3 v 2.8 l -18,17.7 h 18.6 v 2.8 h -23 v -2.8 z"
   id="path308"
   style="fill:#ffffff" />

			<path
   class="st2"
   d="m 354.7,-847.1 v 0 c -0.4,0.6 -0.7,1.2 -1.2,1.8 -0.5,0.6 -1.1,1.2 -1.9,1.7 -0.8,0.5 -1.7,1 -2.8,1.3 -1.1,0.4 -2.3,0.5 -3.6,0.5 -2.3,0 -4.2,-0.4 -5.8,-1.1 -1.6,-0.7 -3,-1.7 -3.9,-2.9 -1,-1.2 -1.7,-2.5 -2.2,-3.9 -0.4,-1.4 -0.7,-2.9 -0.7,-4.4 0,-1.7 0.3,-3.2 0.8,-4.7 0.5,-1.5 1.3,-2.8 2.3,-3.9 1,-1.1 2.4,-2 4,-2.7 1.6,-0.7 3.5,-1 5.5,-1 2.1,0 4.1,0.5 5.7,1.5 1.7,1 2.9,2.3 3.7,3.8 h 0.1 v -13.6 h 3.3 v 32.1 h -3.3 z m -0.4,-10.6 c -0.4,-1.1 -1,-2.2 -1.8,-3.1 -0.8,-0.9 -1.8,-1.6 -3.1,-2.1 -1.2,-0.5 -2.7,-0.8 -4.3,-0.8 -2.7,0 -4.9,0.9 -6.7,2.6 -1.8,1.7 -2.7,4.1 -2.7,6.9 0,1.2 0.2,2.4 0.5,3.5 0.4,1.1 0.9,2.1 1.7,3.1 0.7,0.9 1.7,1.6 2.9,2.2 1.2,0.6 2.6,0.8 4.2,0.8 2.8,0 5.2,-0.9 7,-2.6 1.8,-1.7 2.7,-4 2.7,-7 0.2,-1.1 0,-2.3 -0.4,-3.5 z"
   id="path309"
   style="fill:#ffffff" />

			<path
   class="st2"
   d="m 387.4,-849.9 c -0.4,1.1 -0.9,2.1 -1.5,3.1 -0.6,1 -1.5,1.8 -2.5,2.6 -1,0.8 -2.2,1.4 -3.6,1.8 -1.4,0.4 -3.1,0.7 -4.9,0.7 -2.3,0 -4.2,-0.4 -5.8,-1.1 -1.6,-0.7 -3,-1.7 -3.9,-2.9 -1,-1.2 -1.7,-2.5 -2.2,-3.9 -0.4,-1.4 -0.7,-2.9 -0.7,-4.4 0,-1.7 0.3,-3.2 0.8,-4.7 0.5,-1.5 1.3,-2.8 2.3,-3.9 1,-1.1 2.4,-2 4,-2.7 1.6,-0.7 3.5,-1 5.5,-1 1.6,0 3.2,0.2 4.7,0.6 1.5,0.4 2.9,1.1 4.2,2.1 1.3,1 2.3,2.3 3,4.1 0.8,1.7 1.1,3.8 1.1,6.3 h -22.4 c 0,2.5 0.8,4.6 2.5,6.2 1.7,1.7 3.9,2.5 6.8,2.5 2.7,0 4.7,-0.4 6.2,-1.3 1.4,-0.9 2.4,-2.2 3,-4 h 3.4 z m -2.7,-5.9 c -0.2,-1.4 -0.7,-2.6 -1.2,-3.6 -0.6,-1 -1.3,-1.8 -2.2,-2.5 -1.6,-1.2 -3.7,-1.8 -6.1,-1.8 -1.1,0 -2.2,0.1 -3.2,0.4 -1.1,0.3 -2,0.8 -2.9,1.4 -0.9,0.6 -1.6,1.4 -2.2,2.5 -0.6,1 -1,2.2 -1.2,3.6 z"
   id="path310"
   style="fill:#ffffff" />

			<path
   class="st2"
   d="m 404.8,-874.4 h 23.9 v 3 h -20.6 v 10.8 h 19.5 v 3 h -19.5 v 15 h -3.3 z"
   id="path311"
   style="fill:#ffffff" />

			<path
   class="st2"
   d="m 431.7,-858.8 c 0.5,-1.5 1.4,-2.8 2.5,-3.9 1.1,-1.1 2.5,-2 4.1,-2.7 1.7,-0.7 3.6,-1 5.7,-1 2.2,0 4.1,0.3 5.8,1 1.7,0.7 3,1.6 4.1,2.7 1.1,1.1 1.9,2.5 2.5,3.9 0.5,1.5 0.8,3 0.8,4.7 0,1.6 -0.3,3.2 -0.8,4.7 -0.5,1.5 -1.4,2.8 -2.5,3.9 -1.1,1.1 -2.5,2 -4.1,2.7 -1.7,0.7 -3.6,1 -5.8,1 -2.2,0 -4.1,-0.3 -5.7,-1 -1.6,-0.7 -3,-1.6 -4.1,-2.7 -1.1,-1.1 -1.9,-2.5 -2.5,-3.9 -0.6,-1.5 -0.8,-3 -0.8,-4.7 0,-1.6 0.3,-3.2 0.8,-4.7 z m 5.1,11.6 c 1.8,1.8 4.2,2.6 7.2,2.6 3.1,0 5.5,-0.9 7.2,-2.6 1.8,-1.8 2.6,-4.1 2.6,-6.9 0,-2.8 -0.9,-5.2 -2.6,-6.9 -1.8,-1.8 -4.2,-2.6 -7.2,-2.6 -3.1,0 -5.5,0.9 -7.2,2.6 -1.8,1.8 -2.6,4.1 -2.6,6.9 0,2.8 0.9,5.2 2.6,6.9 z"
   id="path312"
   style="fill:#ffffff" />

			<path
   class="st2"
   d="m 461.5,-865.7 h 3.3 v 5.3 h 0.1 c 0.4,-0.8 0.8,-1.5 1.2,-2.2 0.4,-0.7 1,-1.3 1.7,-1.9 0.7,-0.6 1.5,-1 2.5,-1.4 1,-0.3 2.1,-0.5 3.5,-0.5 0.7,0 1.3,0.1 2,0.2 v 3.4 c -1,-0.2 -2,-0.3 -3,-0.3 -1,0 -1.9,0.2 -2.8,0.5 -0.9,0.3 -1.8,0.8 -2.5,1.5 -0.8,0.7 -1.4,1.6 -1.9,2.7 -0.5,1.1 -0.7,2.5 -0.7,4.1 v 11.8 h -3.3 v -23.2 z"
   id="path313"
   style="fill:#ffffff" />

			<path
   class="st2"
   d="m 477.8,-858.6 c 0.3,-2.6 1.2,-4.5 2.9,-5.9 1.7,-1.3 4.4,-2 8.2,-2 3.8,0 6.5,0.6 8.1,1.7 1.7,1.1 2.5,2.9 2.5,5.2 v 12.1 c 0,1 0.1,1.6 0.4,2 0.3,0.4 0.8,0.6 1.4,0.6 0.4,0 1,0 1.7,-0.1 v 2.2 c 0,0 -0.1,0 -0.1,0 -1.1,0.2 -2,0.3 -2.6,0.3 -0.8,0 -1.4,-0.1 -1.9,-0.4 -0.5,-0.2 -0.9,-0.6 -1.1,-0.9 -0.2,-0.4 -0.4,-0.8 -0.5,-1.3 -0.1,-0.5 -0.1,-1 -0.1,-1.5 h -0.1 c -0.4,0.6 -0.8,1.1 -1.2,1.5 -0.4,0.5 -1.1,0.9 -1.9,1.4 -0.8,0.5 -1.9,0.9 -3.1,1.2 -1.3,0.3 -2.8,0.5 -4.6,0.5 -1.1,0 -2.1,-0.1 -3.2,-0.4 -1,-0.3 -2,-0.7 -2.9,-1.2 -0.9,-0.6 -1.6,-1.3 -2.1,-2.2 -0.5,-0.9 -0.8,-2 -0.8,-3.2 0,-1.5 0.3,-2.7 1,-3.7 0.7,-1 1.6,-1.7 2.7,-2.2 1.1,-0.5 2.3,-0.8 3.5,-1 1.2,-0.2 2.7,-0.3 4.3,-0.4 1.9,-0.1 3.4,-0.2 4.4,-0.4 1,-0.1 1.8,-0.3 2.3,-0.5 0.5,-0.2 0.9,-0.5 1.1,-0.8 0.2,-0.3 0.3,-0.8 0.3,-1.4 0,-1.7 -0.6,-2.8 -1.8,-3.5 -1.2,-0.7 -3.2,-1 -5.9,-1 -2.6,0 -4.6,0.4 -5.9,1.2 -1.3,0.8 -2,2.1 -2.1,3.9 h -2.9 z m 18.7,3.6 c -0.7,0.4 -1.6,0.7 -2.7,0.9 -1.2,0.2 -3.4,0.4 -6.8,0.7 l -0.8,0.1 c -2,0.2 -3.5,0.6 -4.5,1.3 -1,0.7 -1.5,1.7 -1.5,3 0,1.7 0.6,2.9 1.9,3.6 1.2,0.7 2.8,1.1 4.8,1.1 1.1,0 2.3,-0.2 3.4,-0.5 1.1,-0.3 2.2,-0.8 3.1,-1.4 1,-0.6 1.7,-1.4 2.3,-2.3 0.6,-0.9 0.8,-1.9 0.8,-3.1 z"
   id="path314"
   style="fill:#ffffff" />

		</g>

	</g>

	<g
   id="g321">
		<path
   class="st2"
   d="M 242.7,-951.7 H 224.4 V -963 h 50.1 v 11.3 h -18.3 v 49.8 h -13.4 v -49.8 z"
   id="path315"
   style="fill:#ffffff" />

		<path
   class="st2"
   d="m 280.7,-921 c 0.2,3.8 1.2,6.6 3,8.5 1.8,1.8 4.4,2.7 7.9,2.7 2.3,0 4.4,-0.6 6.2,-1.8 1.8,-1.2 2.9,-2.5 3.3,-4 h 10.7 c -1.7,5.1 -4.2,8.8 -7.7,11.3 -3.5,2.4 -7.8,3.6 -13,3.6 -3.4,0 -6.5,-0.6 -9.3,-1.7 -2.8,-1.1 -5.2,-2.7 -7.1,-4.8 -2,-2.1 -3.5,-4.6 -4.5,-7.4 -1.1,-2.9 -1.6,-6 -1.6,-9.4 0,-3.3 0.5,-6.4 1.6,-9.2 1.1,-2.9 2.6,-5.3 4.6,-7.4 2,-2.1 4.4,-3.8 7.2,-4.9 2.8,-1.2 5.8,-1.8 9.2,-1.8 3.5,0 6.6,0.6 9.3,1.9 2.7,1.3 5,3 6.8,5.3 1.8,2.2 3.2,4.8 4.1,7.7 0.9,2.9 1.4,6 1.4,9.2 0,0.2 0,0.6 -0.1,1 0,0.5 0,0.9 0,1.1 h -32 z m 19.8,-7.7 c -0.6,-3.2 -1.6,-5.6 -3.1,-7.1 -1.5,-1.5 -3.7,-2.3 -6.5,-2.3 -1.8,0 -3.4,0.3 -4.7,0.9 -1.3,0.6 -2.3,1.4 -3.1,2.4 -0.8,1 -1.4,2 -1.7,3 -0.3,1.1 -0.5,2.1 -0.6,3 h 19.7 z"
   id="path316"
   style="fill:#ffffff" />

		<path
   class="st2"
   d="m 350,-930.5 c -0.8,-5.1 -3.8,-7.6 -9,-7.6 -1.8,0 -3.4,0.4 -4.8,1.3 -1.4,0.9 -2.5,2 -3.3,3.4 -0.8,1.4 -1.4,2.9 -1.8,4.6 -0.4,1.7 -0.6,3.4 -0.6,5.1 0,1.7 0.2,3.4 0.6,5 0.4,1.6 0.9,3.1 1.7,4.5 0.8,1.3 1.8,2.4 3.1,3.3 1.3,0.8 2.9,1.2 4.7,1.2 2.7,0 4.9,-0.8 6.6,-2.4 1.7,-1.6 2.7,-3.8 3.1,-6.6 H 362 c -0.7,5.8 -3,10.3 -6.8,13.4 -3.8,3.1 -8.6,4.7 -14.5,4.7 -3.3,0 -6.3,-0.6 -9,-1.7 -2.8,-1.1 -5.1,-2.7 -7.1,-4.7 -2,-2 -3.5,-4.4 -4.6,-7.2 -1.1,-2.8 -1.6,-5.8 -1.6,-9.1 0,-3.4 0.5,-6.6 1.5,-9.5 1,-2.9 2.5,-5.5 4.4,-7.7 1.9,-2.2 4.3,-3.8 7.1,-5 2.8,-1.2 6,-1.8 9.5,-1.8 5.6,0 10.4,1.5 14.3,4.4 4,2.9 6.1,7 6.5,12.4 z"
   id="path317"
   style="fill:#ffffff" />

		<path
   class="st2"
   d="m 369,-963 h 12.1 v 23 h 0.3 c 1.5,-2.4 3.4,-4.2 5.8,-5.5 2.4,-1.3 4.7,-1.9 7.1,-1.9 3.1,0 5.8,0.4 7.9,1.3 2.1,0.9 3.8,2.1 5,3.6 1.2,1.6 2.1,3.5 2.6,5.6 0.5,2.2 0.7,4.7 0.7,7.7 v 27.2 h -12.1 v -25 c 0,-3.7 -0.6,-6.4 -1.8,-8.2 -1.2,-1.8 -3.2,-2.7 -6,-2.7 -3.3,0 -5.7,1 -7.2,3 -1.5,2 -2.2,5.2 -2.2,9.7 V -902 H 369 Z"
   id="path318"
   style="fill:#ffffff" />

		<path
   class="st1"
   d="m 444.8,-963 h 13.4 v 23.4 h 24.7 V -963 h 13.4 v 61.1 h -13.4 v -26.4 h -24.7 v 26.4 h -13.4 z"
   id="path319"
   style="fill:#0052f5" />

		<path
   class="st1"
   d="m 548.4,-901.9 h -11.6 v -6.2 h -0.3 c -1.5,2.4 -3.4,4.2 -5.9,5.5 -2.4,1.3 -5,1.9 -7.7,1.9 -3.1,0 -5.8,-0.4 -7.9,-1.3 -2.1,-0.9 -3.8,-2.1 -5,-3.7 -1.2,-1.6 -2.1,-3.5 -2.6,-5.6 -0.5,-2.2 -0.7,-4.7 -0.7,-7.6 v -27.2 H 519 v 25 c 0,3.7 0.6,6.4 1.8,8.2 1.2,1.8 3.2,2.7 5.9,2.7 3.3,0 5.7,-1 7.2,-3 1.5,-2 2.2,-5.2 2.2,-9.7 v -23.2 h 12.1 v 44.2 z"
   id="path320"
   style="fill:#0052f5" />

		<path
   class="st1"
   d="m 557.6,-963 h 12.1 v 22.2 h 0.2 c 1.4,-2.2 3.4,-3.8 5.9,-4.9 2.5,-1.1 5.2,-1.7 8,-1.7 2.3,0 4.5,0.5 6.7,1.4 2.2,0.9 4.1,2.4 5.9,4.3 1.8,1.9 3.2,4.4 4.2,7.3 1,3 1.5,6.4 1.5,10.3 0,3.9 -0.5,7.3 -1.5,10.3 -1,3 -2.4,5.5 -4.2,7.4 -1.8,1.9 -3.7,3.3 -5.9,4.3 -2.2,0.9 -4.4,1.4 -6.7,1.4 -3.4,0 -6.4,-0.6 -8.9,-1.7 -2.5,-1.1 -4.4,-2.8 -5.6,-5.2 h -0.2 v 5.6 h -11.6 v -61 z m 29.8,28.9 c -1.8,-2.7 -4.3,-4.1 -7.7,-4.1 -3.4,0 -5.9,1.4 -7.7,4.1 -1.8,2.7 -2.7,6.1 -2.7,10.1 0,4 0.9,7.3 2.7,10.1 1.8,2.7 4.3,4.1 7.7,4.1 3.4,0 5.9,-1.4 7.7,-4.1 1.8,-2.7 2.7,-6.1 2.7,-10.1 0,-4 -0.9,-7.4 -2.7,-10.1 z"
   id="path321"
   style="fill:#0052f5" />

	</g>

</g>
  </g>
</svg>
